<svg width="750" height="500" viewBox="0 0 750 500" fill="none" xmlns="http://www.w3.org/2000/svg">
<mask id="mask0_26_179" style="mask-type:luminance" maskUnits="userSpaceOnUse" x="0" y="0" width="750" height="500">
<path d="M750 500V0L0 0V500L750 500Z" fill="white"/>
</mask>
<g mask="url(#mask0_26_179)">
<g style="mix-blend-mode:soft-light">
<path d="M379.47 402.55C436.278 402.55 482.33 356.498 482.33 299.69C482.33 242.882 436.278 196.83 379.47 196.83C322.662 196.83 276.61 242.882 276.61 299.69C276.61 356.498 322.662 402.55 379.47 402.55Z" fill="#FAEDD8"/>
</g>
<path d="M116.27 228.68C42.75 233.09 -59 336.91 -59 336.91L363.21 335.04C319.49 313.36 189.79 224.27 116.27 228.68Z" fill="#5062AB"/>
<g style="mix-blend-mode:multiply" opacity="0.5">
<path d="M311.65 305.82C230.4 312.67 141.33 272.7 141.33 272.7C141.33 272.7 153.79 287.07 175.87 292.76C114.67 304.02 60.8 276.62 35.13 260.59C-15.52 292.55 -59 336.91 -59 336.91L363.21 335.04C351.38 329.17 333.25 318.37 311.65 305.82Z" fill="#5062AB"/>
</g>
<path d="M210.5 275.51C210.41 275.27 210.07 275.27 209.98 275.51C209.01 277.96 205.65 286.65 205.28 290.4C205.35 292.45 210.24 294.91 210.24 294.91C210.24 294.91 215.13 292.45 215.2 290.4C214.84 286.65 211.47 277.96 210.5 275.51Z" fill="#7E95E0"/>
<path d="M192.87 282.97C192.78 282.73 192.44 282.73 192.35 282.97C191.38 285.42 188.02 294.11 187.65 297.86C187.72 299.91 192.61 302.37 192.61 302.37C192.61 302.37 197.5 299.91 197.57 297.86C197.21 294.11 193.84 285.42 192.87 282.97Z" fill="#7E95E0"/>
<path d="M176.39 292.76C176.3 292.52 175.96 292.52 175.87 292.76C174.9 295.21 171.54 303.9 171.17 307.65C171.24 309.7 176.13 312.16 176.13 312.16C176.13 312.16 181.02 309.7 181.09 307.65C180.73 303.9 177.36 295.21 176.39 292.76Z" fill="#7E95E0"/>
<path d="M148.89 295.22C148.8 294.98 148.46 294.98 148.37 295.22C147.4 297.67 144.04 306.36 143.67 310.11C143.74 312.16 148.63 314.62 148.63 314.62C148.63 314.62 153.52 312.16 153.59 310.11C153.23 306.36 149.86 297.67 148.89 295.22Z" fill="#7E95E0"/>
<path d="M133.49 287.61C133.4 287.37 133.06 287.37 132.97 287.61C132 290.06 128.64 298.75 128.27 302.5C128.34 304.55 133.23 307.01 133.23 307.01C133.23 307.01 138.12 304.55 138.19 302.5C137.83 298.75 134.46 290.06 133.49 287.61Z" fill="#7E95E0"/>
<path d="M218.19 293.07C198.55 294.12 176.67 307.66 160.51 320.08C138.4 304.63 106.27 286.5 78.84 287.93C31.63 290.4 -34.03 340.96 -34.03 340.96H304.9C304.9 340.96 255.03 291.09 218.19 293.07Z" fill="#7E95E0"/>
<g style="mix-blend-mode:multiply" opacity="0.5">
<path d="M-34.04 340.96H304.89C304.89 340.96 294.27 330.34 279.22 319.1C231.1 325.93 203.33 314.34 187.74 302.46C177.9 307.51 168.5 313.93 160.5 320.07C85.13 340.02 44.58 318.48 26.91 303.56C-5.81997 319.22 -34.04 340.95 -34.04 340.95V340.96Z" fill="#7E95E0"/>
</g>
<path d="M667.37 244.34C658.46 254.51 646.38 264.16 633.59 268.42C620.8 272.68 600.98 269.42 572.21 272.31C520.28 280.67 475.51 338.11 475.51 338.11H753.68V261.23C709.45 211.41 676.29 234.18 667.37 244.34Z" fill="#5062AB"/>
<g style="mix-blend-mode:multiply" opacity="0.5">
<path d="M753.68 315.36C688.65 331.88 574.32 309.02 574.32 309.02C574.32 309.02 587.09 306.59 600.8 300.49C577.84 301.07 556.81 292.58 540.67 283.16C503.39 302.35 475.51 338.12 475.51 338.12H753.68V315.36Z" fill="#5062AB"/>
</g>
<path d="M750.01 500V328.66L0.0100098 328.66V500L750.01 500Z" fill="#FCF4B3"/>
<path d="M621.88 382.68C521.14 380.29 310.42 427.13 178.99 439.3C47.55 451.47 -66.31 405.05 -66.31 405.05V523.49H794.21V414.55C794.21 414.55 722.62 385.08 621.88 382.69V382.68Z" fill="#FFC146"/>
<g style="mix-blend-mode:soft-light">
<path d="M429.17 167.23C421.38 136.54 400.47 151.78 400.47 151.78C401.15 149.24 400.05 144.68 395.57 143.17C391.1 141.66 385.52 147 385.52 147C385.52 147 386.59 115.15 365.24 112.42C343.89 109.69 326.87 134.04 326.87 134.04C326.87 134.04 331.76 95.6801 302.17 99.1001C264.85 102.55 250.81 148.19 250.81 148.19C250.81 148.19 249.75 143.33 245.02 144.87C240.29 146.41 236.71 157.02 236.71 157.02C236.71 157.02 236.07 149.72 227.51 150.36C218.95 151 214.71 159.71 211.9 167.88C198.63 170.95 197.13 177.08 197.13 177.08L450.99 178.69C450.99 178.69 431.33 170.04 429.15 167.24L429.17 167.23Z" fill="#FAEDD8"/>
</g>
<g style="mix-blend-mode:soft-light">
<path d="M380.59 100.24L403.63 87.86C403.63 87.86 408.46 69.52 423.3 67.71C431.92 66.81 434.25 74.84 433.84 79.23C435.51 75.74 438.57 73.07 442.7 73.25C446.84 73.43 449.34 78.33 449.34 78.33C449.34 78.33 448.76 24.2 508.55 13.52C537.47 8.47004 553.78 38.11 546.99 56.88C551.5 54.69 560.39 51.35 563.8 61.19C564.94 57.96 571.28 26.04 605.96 25.52C640.64 25 636.49 86.48 636.49 86.48L659.57 101.43L380.6 100.24H380.59Z" fill="#FAEDD8"/>
</g>
<path d="M262.65 530.55C262.65 530.55 329.1 442.36 507.01 435.37C684.91 428.39 794.21 504.19 794.21 504.19V530.55H262.65Z" fill="#FFA346"/>
<g style="mix-blend-mode:multiply" opacity="0.5">
<path d="M794.2 504.2C794.2 504.2 786.93 499.17 773.13 491.82C575.54 509.95 437.49 476.31 379.44 457.75C296.21 486.03 262.64 530.55 262.64 530.55H794.2V504.19V504.2Z" fill="#FFA346"/>
</g>
<path d="M520.07 514.61C520.07 514.61 509.57 463 471.3 447.13C459.69 442.32 445.18 453.46 452.11 465.78C455.77 472.27 463.71 476.9 469.93 480.66C485.69 490.18 500.95 497.39 509.41 514.69L520.06 514.61H520.07Z" fill="#FFC855"/>
<path d="M513.06 512.11C512.66 512.11 512.28 511.87 512.13 511.47C499.08 477.47 465.82 461.93 465.48 461.78C464.98 461.55 464.76 460.96 464.99 460.45C465.22 459.95 465.81 459.73 466.31 459.96C466.65 460.12 500.65 475.97 513.99 510.75C514.19 511.27 513.93 511.84 513.41 512.04C513.29 512.08 513.17 512.11 513.05 512.11H513.06Z" fill="#FFBA46"/>
<g style="mix-blend-mode:multiply" opacity="0.5">
<path d="M478.49 450.7C482.5 458.4 493.86 481.29 496.1 497.71C501.39 502.25 505.97 507.63 509.42 514.69L520.07 514.61C520.07 514.61 510.9 469.56 478.49 450.7Z" fill="#FFC855"/>
</g>
<path d="M527.18 514.69C527.18 514.69 539.65 459.73 500.09 415.47C493.8 408.43 483.05 407.64 476.16 414.22C464.86 425.01 473.3 441.26 480.92 451.2C488.68 461.33 496.18 471.68 503.39 482.21C510.37 492.41 514.36 501.76 517.56 514.58L527.18 514.69Z" fill="#FFD755"/>
<path d="M521.82 509.83C521.3 509.83 520.87 509.43 520.82 508.91C517.2 464.54 485.43 426.54 485.11 426.16C484.75 425.74 484.81 425.11 485.23 424.75C485.65 424.39 486.28 424.45 486.64 424.87C486.96 425.25 519.15 463.73 522.82 508.75C522.86 509.3 522.46 509.78 521.9 509.83C521.87 509.83 521.85 509.83 521.82 509.83Z" fill="#FFBA46"/>
<g style="mix-blend-mode:multiply" opacity="0.5">
<path d="M475.51 442.97C477.17 445.97 479.07 448.77 480.93 451.19C488.69 461.32 496.19 471.67 503.4 482.2C510.38 492.4 514.37 501.75 517.57 514.57L527.19 514.68C527.19 514.68 530.95 498.11 527.79 475.84C508.96 474.75 486.16 453.34 475.52 442.96L475.51 442.97Z" fill="#FFD755"/>
</g>
<path d="M575.03 509.83C574.6 509.83 574.21 509.56 574.08 509.13C563.23 474.46 520.6 457.75 520.17 457.58C519.65 457.38 519.4 456.8 519.59 456.29C519.79 455.77 520.37 455.52 520.88 455.71C521.32 455.88 564.84 472.95 575.98 508.53C576.14 509.06 575.85 509.62 575.32 509.78C575.22 509.81 575.12 509.83 575.02 509.83H575.03Z" fill="#935055"/>
<path d="M525.78 458.67C527.1 456.53 529.34 455.47 532.47 455.6C537.22 455.8 542.22 459.59 545.84 462.31C550.01 465.45 557.52 471.11 558.26 476.73C558.69 479.95 555.51 481.67 552.8 482.15C548.36 482.95 543.23 480.28 539.54 478.16C536.28 476.29 533.25 474.03 530.44 471.54C527.79 469.19 523.94 466.27 524.55 462.27C524.77 460.85 525.18 459.65 525.78 458.67Z" fill="#FF6273"/>
<g style="mix-blend-mode:multiply" opacity="0.5">
<path d="M558.27 476.73C557.88 473.81 555.66 470.88 553.04 468.3C553.11 471.21 550.12 472.78 547.55 473.25C543.11 474.05 537.98 471.38 534.29 469.26C531.03 467.39 528 465.13 525.19 462.64C525 462.47 524.79 462.29 524.59 462.11C524.59 462.17 524.57 462.22 524.56 462.28C523.95 466.28 527.81 469.2 530.45 471.55C533.26 474.04 536.29 476.3 539.55 478.17C543.24 480.29 548.37 482.96 552.81 482.16C555.51 481.67 558.7 479.96 558.27 476.74V476.73Z" fill="#FF6273"/>
</g>
<path d="M582.93 509.83C582.44 509.83 582.01 509.46 581.94 508.96C575.6 461.32 532.5 422.05 532.07 421.65C531.66 421.28 531.63 420.65 532 420.24C532.37 419.83 533 419.8 533.41 420.17C533.85 420.57 577.49 460.33 583.93 508.7C584 509.25 583.62 509.75 583.07 509.82C583.03 509.82 582.98 509.82 582.94 509.82L582.93 509.83Z" fill="#935055"/>
<path d="M536.26 439.2C536.26 439.2 528.96 429.65 536.26 424.27C543.61 418.86 551.68 426.14 556.27 431.7C560.57 436.91 568.28 447.03 565 454.14C564.44 455.36 563.51 456.34 562.38 457.06C554.65 461.97 541.09 445.57 536.26 439.2Z" fill="#FF6273"/>
<path d="M589.54 509.83C589.14 509.83 588.76 509.58 588.6 509.18C583.92 496.81 581.51 477.71 581.42 452.43C581.36 433.64 582.68 418.26 582.69 418.11C582.74 417.56 583.22 417.14 583.77 417.2C584.32 417.25 584.73 417.73 584.68 418.28C584.63 418.89 579.49 479.46 590.46 508.47C590.66 508.99 590.39 509.56 589.88 509.76C589.76 509.8 589.64 509.82 589.53 509.82L589.54 509.83Z" fill="#935055"/>
<path d="M579.9 461.65C581.48 462.51 583.42 462.34 584.9 461.32C588.14 459.09 593.46 453.56 593.94 441.16C593.94 432.01 593.3 422.74 583.5 422.11C573.69 421.48 571.92 431.18 571.95 435.15C571.98 438.83 570.17 456.38 579.9 461.66V461.65Z" fill="#FF6273"/>
<g style="mix-blend-mode:multiply" opacity="0.5">
<path d="M562.38 457.06C563.51 456.34 564.44 455.36 565 454.14C566.6 450.68 565.58 446.5 563.63 442.52C556.3 448.1 541.49 440.83 534.96 437.12C535.65 438.39 536.27 439.2 536.27 439.2C541.1 445.58 554.66 461.97 562.39 457.06H562.38Z" fill="#FF6273"/>
</g>
<g style="mix-blend-mode:multiply" opacity="0.5">
<path d="M579.9 461.65C581.48 462.51 583.42 462.34 584.9 461.32C587.4 459.6 591.12 455.9 592.92 448.62C582.67 451.62 575.5 442.07 571.94 435.6C571.86 440.07 570.51 456.57 579.89 461.65H579.9Z" fill="#FF6273"/>
</g>
<g style="mix-blend-mode:multiply">
<path d="M486.86 360.96L478.49 365.26L533.01 367.97L363.21 369.69L375.01 366.06L329.45 361.9L486.86 360.96Z" fill="#FCF4B3"/>
</g>
<path d="M435.16 343.96C435.16 343.96 446.2 349.9 465.48 343.96C465.48 343.96 456.65 299.27 435.16 291.83V343.96Z" fill="#FF6273"/>
<path d="M435.16 344.38C435.16 344.38 425.86 349.38 409.64 344.38C409.64 344.38 417.07 306.75 435.16 300.49V344.38Z" fill="#FF6273"/>
<path d="M435.16 356.05C434.61 356.05 434.16 355.6 434.16 355.05V291.83C434.16 291.28 434.61 290.83 435.16 290.83C435.71 290.83 436.16 291.28 436.16 291.83V355.05C436.16 355.6 435.71 356.05 435.16 356.05Z" fill="#7E95E0"/>
<path d="M392.95 354.05H477.09C477.09 354.05 475.92 362.77 465.56 365.08H407.63C399.63 365.08 394.44 359.33 392.95 354.05Z" fill="#EA9E10"/>
<g style="mix-blend-mode:multiply">
<path d="M-8.85997 340.96L272.47 356.05L187.65 361.68L386.57 383.96L-8.85997 398.08V340.96Z" fill="#FCF4B3"/>
</g>
<g style="mix-blend-mode:multiply">
<path d="M762.55 370.77L507.69 359.59L608.43 351.08L459.41 340.86L762.55 331.15V370.77Z" fill="#FCF4B3"/>
</g>
<path d="M314.37 73.58C338.79 30.84 314.42 -19.3 271.34 -38.01C248.03 -48.13 222.47 -51.34 197.55 -54.83C170.68 -58.59 146.93 -71.44 122.8 -83.02C95.85 -95.95 65.39 -107.08 36.59 -99.03C8.95003 -91.31 -8.22997 -68.56 -24.02 -46.25C-44.13 -17.84 -68.96 11.43 -102.28 25.5C-116.98 31.71 -133.16 41.22 -139.53 56.7C-148.49 78.47 -132.82 100.71 -118.56 115.97C-113.16 121.75 -113.76 133.11 -114.88 140.02C-117.22 154.45 -128.58 165.77 -128.44 180.8C-128.16 211.39 -103.02 237.3 -76.6 249.28C-51.35 260.73 -23.79 261.91 3.49002 262.16C21.25 262.32 40.19 261.62 57.2 267.56C74.68 273.67 82.83 286.41 88.65 303.18C94.44 319.86 116.9 324.37 122.66 300C122.66 300 124.94 246.96 170.27 245.05C211.31 243.31 262.83 238.19 294.07 208.31C336.89 167.35 288.27 119.26 314.37 73.58Z" fill="#EA9E10"/>
<g style="mix-blend-mode:multiply" opacity="0.5">
<path d="M314.37 73.58C324.16 56.44 326.1 38.11 322.15 21.1C316.47 42.16 299.01 55.51 276.61 77.74C248.4 105.73 276 152.66 246.36 181.96C216.72 211.25 153.59 208.39 153.59 208.39C192.61 196.58 212.92 162.66 212.92 162.66C212.92 162.66 192.61 175.47 133.42 179.97C64.12 227.04 -11.35 168.58 -11.35 168.58C-11.35 168.58 -1.46998 193.83 23.29 213.28C-5.46998 212.97 -37.7 182.31 -34.04 153.77C-30.38 125.24 -30.29 122.2 -66.32 73.77C-83.44 50.76 -86.38 30.85 -84.75 16.29C-90.33 19.8 -96.16 22.91 -102.29 25.5C-116.99 31.71 -133.17 41.22 -139.54 56.7C-148.5 78.47 -132.83 100.71 -118.57 115.97C-113.17 121.75 -113.77 133.11 -114.89 140.02C-117.23 154.45 -128.59 165.77 -128.45 180.8C-128.17 211.39 -103.03 237.3 -76.61 249.28C-51.36 260.73 -23.8 261.91 3.48003 262.16C21.24 262.32 40.18 261.62 57.19 267.56C74.67 273.67 82.82 286.41 88.64 303.18C89.31 305.1 90.2 306.85 91.26 308.42C97.67 308.92 103.14 309.15 107.08 308.97C109.97 308.84 114.29 308.51 119.66 308.02C120.89 305.8 121.91 303.15 122.65 300.01C122.65 300.01 124.93 246.97 170.26 245.06C211.3 243.32 262.82 238.2 294.06 208.32C336.88 167.36 288.26 119.27 314.36 73.59L314.37 73.58Z" fill="#EA9E10"/>
</g>
<g style="mix-blend-mode:multiply" opacity="0.5">
<path d="M253.75 135.85C254.68 138.74 255.04 141.73 255.21 144.72C255.36 147.72 255.21 150.74 254.8 153.74C253.97 159.74 252.01 165.71 248.79 171.1C247.19 173.8 245.21 176.3 242.96 178.54C241.85 179.67 240.61 180.68 239.37 181.66C238.06 182.57 236.77 183.48 235.36 184.19C234 184.99 232.51 185.54 231.08 186.13C229.58 186.59 228.13 187.1 226.6 187.34C223.6 187.98 220.52 188.02 217.54 187.67C220.22 186.24 222.81 185.07 225.16 183.54C226.38 182.88 227.47 182.01 228.6 181.3C229.66 180.44 230.76 179.71 231.73 178.8C232.76 177.98 233.67 177.01 234.62 176.13C235.49 175.14 236.42 174.25 237.21 173.21C237.42 172.96 237.62 172.71 237.84 172.47L238.43 171.69C238.81 171.16 239.24 170.67 239.58 170.12L240.69 168.51L241.72 166.83C244.41 162.32 246.63 157.4 248.51 152.19C250.42 146.98 252.03 141.57 253.75 135.83V135.85Z" fill="#EA9E10"/>
</g>
<path d="M272.55 41.4199C272.11 41.2699 271.62 41.5099 271.47 41.9499C269.59 47.4099 267.09 52.6199 263.95 57.3499C263.58 57.9499 263.16 58.5299 262.73 59.0899L261.47 60.7899C260.56 61.8699 259.7 62.9899 258.72 63.9999C256.83 66.0799 254.76 67.9699 252.55 69.6799C248.16 73.1199 243.2 75.7299 237.99 77.5099C236.79 77.9199 234.76 78.4199 232.85 78.8599C230.93 79.2999 229.34 77.3899 230.07 75.5699C230.07 75.5599 230.08 75.5399 230.09 75.5299C232.93 68.3999 234.65 61.0199 235.67 53.6599C235.84 52.4299 234.86 51.2399 233.42 51.3599C232.61 51.4299 231.95 52.0299 231.72 52.8099C229.7 59.7099 227.05 66.3599 223.55 72.3799C220.05 78.3999 215.7 83.7599 210.63 88.2099C210.48 88.3399 210.33 88.4699 210.19 88.5999C206.11 92.1699 200.78 93.9999 195.37 93.7299C192.98 93.6099 190.61 93.3899 188.26 93.0499C186.8 92.8099 185.34 92.5399 183.89 92.2299C182.48 91.8399 181.01 91.5499 179.65 91.0399C176.84 90.1699 174.2 88.9199 171.73 87.3999C169.27 85.8699 167.03 83.9999 165.17 81.7699C163.3 79.5399 161.82 76.9699 160.77 74.1899C158.66 68.6399 158.17 62.2799 159.21 56.2799V56.2299C159.27 55.9199 159.09 55.5999 158.77 55.5099C158.43 55.4099 158.08 55.5999 157.98 55.9399C157.07 59.0599 156.65 62.2299 156.57 65.4699C156.49 68.6999 156.87 71.9699 157.71 75.1699C158.56 78.3599 159.93 81.4699 161.82 84.2599C163.7 87.0599 166.09 89.5299 168.76 91.5899C171.43 93.6499 174.35 95.3999 177.42 96.7199C178.93 97.4699 180.51 97.9599 182.07 98.5599C183.65 99.0699 185.24 99.5399 186.83 99.9699H186.86C187.9 100.24 188 101.68 187.01 102.09C182.79 103.83 178.43 105.44 173.98 107.06C167.13 109.56 159.97 112.15 152.82 115.6C151.03 116.44 149.26 117.38 147.48 118.31C145.74 119.29 143.9 120.31 142.3 121.3C138.99 123.29 135.71 125.39 132.49 127.63C129.92 129.41 127.38 131.27 124.88 133.23L122.85 -9.3501H89.41L86.63 186.24C80.84 183.1 74.96 180.95 69.27 179.25C62.71 177.3 56.33 175.89 50.03 174.55L31.35 170.71L29.04 170.23L27.88 169.99L26.88 169.75C26.21 169.59 25.53 169.45 24.87 169.26L23.68 168.9C25.21 167.71 26.67 166.44 28.03 165.09C31.87 161.26 34.97 156.79 37.2 152.02C39.41 147.23 40.8 142.18 41.42 137.13C42.07 132.08 42.04 127.03 41.53 122.1C41.48 121.64 41.1 121.27 40.63 121.24C40.1 121.21 39.65 121.62 39.62 122.15C39.36 126.99 38.61 131.76 37.29 136.29C35.99 140.82 34.03 145.08 31.51 148.85C28.97 152.61 25.83 155.86 22.27 158.42C20.49 159.7 18.61 160.82 16.67 161.76C15.7 162.22 14.71 162.64 13.73 163C13.24 163.18 12.75 163.34 12.27 163.49C12.22 163.5 12.18 163.51 12.14 163.53C10.71 162.62 9.30002 161.65 7.95002 160.59C5.65002 158.78 3.45003 156.79 1.36003 154.65C-2.80997 150.34 -6.48997 145.43 -9.71997 140.17C-12.92 134.91 -15.74 129.26 -17.84 123.47L-17.87 123.4C-18.1 122.76 -18.77 122.37 -19.46 122.5C-20.22 122.65 -20.71 123.39 -20.56 124.15C-19.29 130.58 -17.32 136.71 -14.82 142.77C-13.08 146.92 -11.06 150.99 -8.69997 154.92C-8.74997 154.92 -8.79998 154.93 -8.84998 154.94C-10.91 155.13 -13 155.22 -15.07 155.19C-19.22 155.13 -23.38 154.63 -27.34 153.47C-31.29 152.29 -35.06 150.45 -38.21 147.7C-41.4 144.99 -43.83 141.36 -45.5 137.32C-45.6 137.06 -45.87 136.92 -46.13 136.98C-46.43 137.05 -46.62 137.34 -46.55 137.64C-45.55 142.03 -43.64 146.38 -40.6 150.01C-37.61 153.67 -33.65 156.53 -29.38 158.63C-25.1 160.71 -20.51 162.07 -15.86 162.93C-13.53 163.36 -11.19 163.65 -8.81998 163.83C-7.63998 163.92 -6.44997 163.98 -5.24997 164.01H-3.43998C-3.06998 164.01 -2.73998 164.01 -2.36998 164.01C-1.25998 165.39 -0.0899837 166.73 1.13002 168.04C3.48002 170.54 6.07002 172.86 8.84002 175C11.61 177.16 14.65 179.01 17.82 180.66L20.24 181.83C21.06 182.2 21.9 182.52 22.73 182.87L23.98 183.38L25.1 183.8L27.35 184.64L45.21 191.28C51.07 193.5 56.82 195.75 62.12 198.27C67.42 200.79 72.21 203.6 76.04 206.84C79.89 210.08 82.79 213.71 85.05 217.96C85.36 218.53 85.75 219.16 86.16 219.69C86.17 219.71 86.19 219.72 86.2 219.74L81.88 523.49H130.46L125.49 174.06C126.39 172.2 127.38 170.35 128.47 168.51C130.04 165.85 131.87 163.24 133.8 160.67C137.71 155.54 142.24 150.62 147.19 145.97C149.65 143.64 152.23 141.38 154.89 139.19C156.24 138.05 157.48 137.11 158.78 136.08C160.11 135.11 161.43 134.12 162.83 133.19C168.36 129.4 174.54 126.03 180.98 122.53C187.43 119.04 194.13 115.36 200.53 111.03C206.97 106.74 213.14 101.52 218.19 95.4999C218.89 94.6799 219.56 93.8399 220.21 92.9899C222.7 89.7399 226.29 87.5099 230.3 86.6899C230.83 86.5799 231.27 86.4799 231.55 86.4099C234.55 85.6299 237.47 84.5899 240.3 83.3399C245.94 80.8499 251.17 77.4699 255.63 73.2999C257.87 71.2299 259.94 68.9899 261.77 66.5799C262.73 65.4099 263.54 64.1299 264.41 62.8999C264.82 62.2699 265.2 61.6199 265.59 60.9799C265.99 60.3399 266.37 59.6999 266.71 59.0299C269.58 53.7699 271.68 48.1599 273.11 42.4399C273.21 42.0199 272.98 41.5699 272.56 41.4299L272.55 41.4199Z" fill="#935055"/>
<path d="M108.56 320.3C116.44 328.3 121.14 339.82 120.19 351.37C119.5 357.15 117.13 362.41 114.51 367.4C113.17 369.88 111.71 372.29 110.6 374.84C110.04 376.11 109.57 377.42 109.29 378.76C109.14 379.43 109.05 380.1 109.02 380.77C108.99 381.09 109 381.49 108.92 381.89C108.87 382.1 108.82 382.31 108.68 382.54C108.55 382.77 108.29 383.03 107.95 383.11C107.26 383.24 106.87 382.95 106.52 382.76C106.17 382.54 105.88 382.3 105.6 382.04C105.05 381.53 104.57 380.99 104.11 380.42C103.21 379.26 102.42 378.07 101.73 376.8C100.32 374.28 99.29 371.55 98.61 368.75C97.23 363.14 97.14 357.34 97.55 351.69C97.79 348.85 98.06 346.08 98.42 343.26C98.78 340.45 99.31 337.63 100.15 334.9C100.57 333.53 101.07 332.19 101.65 330.88C102.25 329.53 102.99 328.37 103.69 327.14C104.42 325.93 105.11 324.71 105.86 323.51C106.24 322.91 106.6 322.31 107 321.73C107.2 321.44 107.4 321.15 107.63 320.87C107.74 320.73 107.86 320.6 107.99 320.47C108.06 320.41 108.12 320.34 108.21 320.29C108.28 320.24 108.42 320.17 108.57 320.27L108.56 320.3ZM108.43 320.45C108.43 320.45 108.23 320.53 108.12 320.65C108 320.77 107.89 320.9 107.79 321.04C107.58 321.32 107.38 321.6 107.19 321.9C106.81 322.49 106.45 323.09 106.11 323.7C105.44 324.93 104.77 326.17 104.18 327.44C103.6 328.7 102.93 329.99 102.5 331.26C102.05 332.57 101.7 333.91 101.42 335.27C100.87 337.98 100.59 340.74 100.33 343.52C100.11 346.3 99.84 349.11 99.67 351.88C99.32 357.42 99.26 363 100.44 368.37C101.04 371.04 101.9 373.65 103.13 376.1C103.44 376.71 103.74 377.33 104.12 377.9C104.48 378.49 104.8 379.09 105.2 379.63C105.59 380.18 106.01 380.72 106.47 381.19C106.7 381.43 106.93 381.65 107.17 381.82C107.4 382 107.68 382.09 107.7 382.07C107.7 382.12 107.85 381.97 107.91 381.68C107.98 381.4 108 381.09 108.05 380.71C108.12 379.98 108.27 379.27 108.46 378.57C108.85 377.18 109.39 375.85 109.99 374.57C111.2 372 112.66 369.59 113.95 367.11C115.23 364.63 116.22 362 117.03 359.34C117.83 356.68 118.38 353.96 118.55 351.23C118.65 349.86 118.64 348.51 118.55 347.14C118.44 345.76 118.37 344.39 118.16 343.02C117.83 340.28 117.27 337.57 116.52 334.91C114.99 329.62 112.45 324.4 108.45 320.46L108.43 320.45Z" fill="#CE808A"/>
<path d="M108.04 329.12C108.34 328.65 109 328.57 109.44 328.85C109.68 329.01 109.78 329.25 109.91 329.43L110.29 330.02C110.82 330.8 111.29 331.61 111.79 332.41C112.75 334.03 113.67 335.69 114.45 337.44C116.03 340.91 116.93 344.8 116.67 348.76C116.23 352.71 115.04 356.29 113.6 359.84C112.11 363.35 110.27 366.71 107.79 369.67C107.48 370.04 107.15 370.4 106.77 370.74L106.47 370.99C106.47 370.99 106.32 371.1 106.21 371.14C106.1 371.2 105.98 371.21 105.84 371.2C105.32 371.11 105.12 370.79 104.98 370.58C104.43 369.65 104.23 368.74 103.98 367.81C103.54 365.96 103.24 364.1 102.98 362.24C102.47 358.51 102.05 354.74 102.28 350.91C102.35 349.96 102.44 349 102.64 348.04C102.82 347.09 103.01 346.2 103.21 345.29C103.59 343.46 104.04 341.65 104.52 339.83C104.99 338.01 105.5 336.2 106.03 334.39C106.31 333.49 106.56 332.58 106.89 331.7C107.21 330.81 107.53 329.92 108.04 329.11V329.12ZM108.21 329.23C107.29 330.84 106.87 332.69 106.53 334.52C106.2 336.36 106 338.22 105.76 340.08C105.54 341.94 105.29 343.8 104.94 345.65C104.79 346.57 104.57 347.51 104.39 348.4C104.22 349.29 104.05 350.18 103.94 351.09C103.67 352.9 103.53 354.75 103.47 356.6C103.41 358.46 103.44 360.32 103.63 362.17C103.83 364.02 104.12 365.87 104.64 367.64C104.9 368.51 105.21 369.43 105.68 370.08C105.78 370.25 105.95 370.31 105.89 370.28C105.87 370.28 105.86 370.29 105.85 370.28C105.85 370.28 105.83 370.31 105.88 370.25L106.1 370.03C106.39 369.72 106.67 369.36 106.93 368.99C108.98 365.97 110.52 362.56 111.85 359.15C112.49 357.43 113.04 355.67 113.5 353.9C113.93 352.13 114.37 350.3 114.54 348.58C114.86 345.05 114.17 341.44 113.21 337.89C112.69 336.12 112.07 334.36 111.3 332.66C110.92 331.81 110.49 330.98 110.03 330.17C109.92 329.96 109.8 329.76 109.68 329.57C109.55 329.37 109.46 329.15 109.3 329.05C108.97 328.82 108.42 328.87 108.2 329.22L108.21 329.23Z" fill="#CE808A"/>
<path d="M117.44 6.84988C115.68 9.06988 113.76 11.1199 111.75 13.1199C109.73 15.1499 107.48 16.8699 105.09 18.8299C108.11 18.4199 111.1 17.2999 113.69 15.5899C116.27 13.8799 118.63 11.7799 120.54 9.35988C121.46 8.20988 122.3 6.99987 123.06 5.75987L122.97 -0.630127L122.54 -0.0101242C120.89 2.35988 119.19 4.64988 117.42 6.85988L117.44 6.84988Z" fill="#AA616A"/>
<path d="M117.44 51.16C115.68 53.38 113.76 55.43 111.75 57.43C109.73 59.46 107.48 61.18 105.09 63.14C108.11 62.73 111.1 61.61 113.69 59.9C116.27 58.19 118.63 56.09 120.54 53.67C121.72 52.2 122.75 50.63 123.67 49L123.58 42.78L122.54 44.29C120.89 46.66 119.19 48.95 117.42 51.16H117.44Z" fill="#AA616A"/>
<path d="M120.55 97.9799C121.99 96.1799 123.25 94.2399 124.3 92.2099L124.21 86.1899L122.55 88.5999C120.9 90.9699 119.2 93.2599 117.43 95.4699C115.67 97.6899 113.75 99.7399 111.74 101.74C109.72 103.77 107.47 105.49 105.08 107.45C108.1 107.04 111.09 105.92 113.68 104.21C116.26 102.5 118.62 100.4 120.53 97.9799H120.55Z" fill="#AA616A"/>
<path d="M124.88 133.22L124.82 128.81C124.5 129.2 124.19 129.59 123.89 129.98L120.57 134.17C119.48 135.55 118.34 136.84 117.16 138.17C115.98 139.52 114.68 140.72 113.27 142.25C115.31 142.27 117.34 141.67 119.1 140.64C120.85 139.6 122.43 138.26 123.67 136.68C124.79 135.28 125.69 133.72 126.37 132.09C125.87 132.47 125.37 132.84 124.87 133.22H124.88Z" fill="#AA616A"/>
<path d="M96.71 45.63L94.7 46.67C94.04 47.05 93.35 47.36 92.67 47.68L90.62 48.68C89.94 48.97 89.26 49.27 88.58 49.58L88.53 52.82C88.86 52.75 89.19 52.68 89.51 52.59C90.3 52.4 91.08 52.19 91.86 51.97C92.64 51.74 93.39 51.43 94.16 51.16C95.7 50.63 97.15 49.86 98.61 49.14C101.47 47.57 104.14 45.62 106.45 43.32C108.74 41.01 110.78 38.36 111.9 35.29C109.44 37.39 106.97 39.2 104.45 40.92C101.93 42.63 99.35 44.18 96.7 45.64L96.71 45.63Z" fill="#AA616A"/>
<path d="M89.17 7.71999C89.81 7.66999 90.44 7.57998 91.05 7.44998C92.69 7.07998 94.26 6.45998 95.69 5.59998C97.13 4.74998 98.45 3.68998 99.55 2.41998C100.66 1.16998 101.56 -0.310019 102.05 -2.02002C100.34 -1.46002 98.97 -0.730016 97.59 -0.0400162C96.24 0.679984 94.94 1.38999 93.66 2.14999C92.39 2.91999 91.12 3.69998 89.84 4.54998C89.63 4.68998 89.42 4.83998 89.2 4.98998L89.16 7.70998L89.17 7.71999Z" fill="#AA616A"/>
<path d="M93.23 100.29C92.75 100.61 92.27 100.93 91.77 101.21L90.31 102.13C89.47 102.6 88.65 103.12 87.81 103.61L87.76 107C88.03 106.93 88.3 106.88 88.56 106.79C89.78 106.48 90.93 105.96 92.09 105.48C93.21 104.92 94.34 104.36 95.38 103.66C97.5 102.32 99.43 100.7 101.1 98.84C102.76 96.98 104.22 94.9 105.09 92.5C102.95 93.85 101 95.18 99.04 96.48C97.1 97.79 95.17 99.06 93.23 100.29Z" fill="#AA616A"/>
<path d="M92.03 255.86C95.45 253.96 98.65 251.63 101.54 248.95C104.45 246.3 106.97 243.19 109.02 239.82C109.52 238.97 110.01 238.11 110.47 237.25L111.64 234.54L112.17 233.17C112.31 232.7 112.46 232.23 112.58 231.75C112.84 230.8 113.08 229.86 113.27 228.91C112.67 229.7 112.12 230.49 111.58 231.28C111.3 231.67 111.05 232.07 110.8 232.47L109.92 233.6L108.25 235.86C107.63 236.57 107.04 237.29 106.45 238.01C104.06 240.85 101.54 243.54 98.81 246.04C96.1 248.56 93.27 250.96 90.31 253.25C88.78 254.44 87.22 255.6 85.63 256.76L85.6 258.77C87.82 257.99 89.96 256.99 92.02 255.87L92.03 255.86Z" fill="#AA616A"/>
<path d="M127.03 284.61C126.1 286.2 125.17 287.76 124.21 289.29C122.33 292.3 120.33 295.18 118.19 297.92C116.08 300.7 113.67 303.18 111.13 305.58C110.47 306.15 109.82 306.73 109.17 307.33C108.49 307.89 107.78 308.4 107.08 308.96L106.03 309.81C105.66 310.06 105.28 310.29 104.91 310.55C104.16 311.06 103.41 311.58 102.66 312.15C103.57 311.99 104.47 311.78 105.38 311.55C105.84 311.44 106.29 311.32 106.74 311.18L108.04 310.66C108.9 310.29 109.78 309.94 110.62 309.51C111.43 309.04 112.24 308.56 113.05 308.06C116.17 305.95 119.05 303.39 121.33 300.39C123.65 297.42 125.55 294.16 126.99 290.72C127.03 290.62 127.07 290.53 127.1 290.43L127.02 284.61H127.03Z" fill="#AA616A"/>
<path d="M97.88 172.68C100.26 171.54 102.46 170 104.39 168.18C106.31 166.35 107.86 164.12 108.82 161.67C106.55 163.07 104.58 164.48 102.47 165.68C100.37 166.89 98.29 168.03 96.13 169.07C93.97 170.11 91.77 171.1 89.52 172.07C88.63 172.47 87.73 172.85 86.82 173.25L86.79 175.46C88 175.42 89.21 175.29 90.41 175.08C92.98 174.62 95.5 173.81 97.88 172.67V172.68Z" fill="#AA616A"/>
<path d="M86.73 299.96C88.38 299.33 89.9 298.43 91.43 297.56C92.19 297.11 92.89 296.57 93.62 296.08L94.69 295.3L95.71 294.46C98.44 292.22 100.83 289.58 102.78 286.67C104.72 283.76 106.33 280.58 107.07 277.15C104.85 279.83 102.65 282.33 100.34 284.7C98.05 287.08 95.67 289.32 93.15 291.39L92.22 292.19L91.24 292.92C90.59 293.41 89.96 293.94 89.3 294.41C87.96 295.33 86.65 296.33 85.24 297.18C85.17 297.23 85.1 297.27 85.03 297.31L84.98 300.64C85.56 300.43 86.14 300.21 86.7 299.95L86.73 299.96Z" fill="#AA616A"/>
<path d="M86.33 401.21C88.47 400.27 90.47 399 92.18 397.43C93.9 395.87 95.4 394.09 96.6 392.12C97.78 390.15 98.73 388.01 99.07 385.67C97.29 387.2 95.72 388.69 94.15 390.17C92.59 391.64 91.05 393.07 89.5 394.46C87.96 395.87 86.36 397.19 84.72 398.51C84.35 398.82 83.98 399.12 83.6 399.41L83.56 402.13C84.51 401.91 85.44 401.62 86.32 401.22L86.33 401.21Z" fill="#AA616A"/>
<path d="M116.63 201.26C117.81 200.53 118.87 199.63 119.94 198.74C122.03 196.91 123.85 194.77 125.33 192.42C125.46 192.21 125.59 191.99 125.71 191.77L125.65 187.58C124.72 188.58 123.79 189.54 122.86 190.49C121.05 192.31 119.22 194.07 117.3 195.74C116.84 196.18 116.33 196.56 115.85 196.98C115.38 197.41 114.89 197.82 114.38 198.21C113.89 198.61 113.38 199.01 112.9 199.43C112.39 199.81 111.88 200.2 111.37 200.61C110.38 201.46 109.29 202.16 108.27 203.02C107.23 203.86 106.13 204.59 105.09 205.56C106.47 205.41 107.82 205.14 109.15 204.77C110.45 204.34 111.78 203.92 113.01 203.29C113.63 202.99 114.25 202.69 114.86 202.36C115.46 202.01 116.04 201.63 116.62 201.26H116.63Z" fill="#AA616A"/>
<path d="M70.07 180.37C70.31 180.15 70.54 179.93 70.76 179.7C70.27 179.55 69.77 179.39 69.28 179.24C68.41 178.98 67.56 178.76 66.7 178.52C65.53 179.06 64.37 179.58 63.2 180.08C61.48 180.78 59.78 181.55 57.99 182.24C57.11 182.64 56.2 182.94 55.29 183.37C54.38 183.78 53.44 184.13 52.49 184.68C53.51 185 54.55 185.21 55.59 185.31C56.63 185.37 57.69 185.42 58.72 185.29C60.81 185.14 62.85 184.54 64.78 183.74C66.71 182.91 68.5 181.76 70.07 180.36V180.37Z" fill="#AA616A"/>
<path d="M14.74 174.94C16.38 174.37 17.91 173.49 19.22 172.23C17.41 171.9 15.79 171.9 14.2 171.84C12.62 171.83 11.09 171.84 9.57002 171.85L5.18002 171.95C6.35002 172.99 7.55003 173.99 8.80003 174.96C9.19003 175.26 9.59002 175.54 9.99002 175.83C11.61 175.78 13.22 175.49 14.74 174.93V174.94Z" fill="#AA616A"/>
<path d="M32.37 181.32C30.74 181.68 29.12 181.97 27.49 182.27C26.11 182.54 24.71 182.78 23.29 183.08L23.94 183.34L25.06 183.76L27.31 184.6L30.22 185.68C31.38 185.32 32.51 184.85 33.57 184.2C34.39 183.68 35.17 183.1 35.85 182.39C36.52 181.69 37.14 180.89 37.46 179.94C36.54 180.27 35.69 180.5 34.84 180.71C34 180.93 33.18 181.11 32.37 181.3V181.32Z" fill="#AA616A"/>
<path d="M86.24 206.36C87.64 204.84 88.84 203.06 89.36 200.99L84.27 203.92C82.65 204.84 81.06 205.74 79.44 206.55C78.64 206.95 77.85 207.35 77.05 207.75C78.1 208.7 79.08 209.68 79.99 210.7C80.42 210.52 80.85 210.32 81.27 210.11C83.13 209.17 84.82 207.88 86.24 206.37V206.36Z" fill="#AA616A"/>
<path d="M166.62 117.74C167.74 115.77 168.54 113.66 169.03 111.49C169.23 110.57 169.37 109.64 169.46 108.71C168.44 109.09 167.42 109.47 166.4 109.85C166.3 110.04 166.2 110.22 166.09 110.41C165.1 112.23 164.15 114.02 163.16 115.75C162.15 117.47 161.12 119.14 159.98 120.78C158.8 122.39 157.51 123.9 155.96 125.6C158.24 125.42 160.41 124.38 162.24 122.97C164.02 121.51 165.49 119.7 166.63 117.74H166.62Z" fill="#AA616A"/>
<path d="M195.99 113.95C197.51 113.01 199.02 112.03 200.51 111.02C201.18 110.58 201.84 110.12 202.5 109.65C202.76 108.84 202.98 108.03 203.15 107.21C203.59 104.86 203.73 102.43 203.18 100.05C202.09 102.21 201.14 104.24 200.17 106.23C199.21 108.22 198.21 110.13 197.16 111.99C196.79 112.66 196.39 113.3 195.99 113.94V113.95Z" fill="#AA616A"/>
<path d="M141.12 146.94C140.38 149.01 139.72 151.06 139.04 153.08C138.82 153.72 138.61 154.36 138.4 155C140.19 152.96 142.08 150.96 144.04 149C144.1 148.53 144.16 148.06 144.19 147.58C144.35 145.29 144.31 142.98 143.71 140.67C142.66 142.79 141.86 144.87 141.12 146.94Z" fill="#AA616A"/>
<g style="mix-blend-mode:multiply" opacity="0.5">
<path d="M89.42 -9.36011L86.64 186.23C80.85 183.09 74.97 180.94 69.28 179.24C62.72 177.29 56.34 175.88 50.04 174.54L31.36 170.7L29.05 170.22L27.89 169.98L26.89 169.74C26.22 169.58 25.54 169.44 24.88 169.25L23.69 168.89C25.22 167.7 26.68 166.43 28.04 165.08C31.88 161.25 34.98 156.78 37.21 152.01C39.42 147.22 40.81 142.17 41.43 137.12C42.08 132.07 42.05 127.02 41.54 122.09C41.49 121.63 41.11 121.26 40.64 121.23C40.11 121.2 39.66 121.61 39.63 122.14C39.37 126.98 38.62 131.75 37.3 136.28C36 140.81 34.04 145.07 31.52 148.84C28.98 152.6 25.84 155.85 22.28 158.41C20.5 159.69 18.62 160.81 16.68 161.75C15.71 162.21 14.72 162.63 13.74 162.99C13.2 163.18 12.67 163.36 12.15 163.51C10.72 162.6 9.31002 161.63 7.96002 160.57C5.66002 158.76 3.46003 156.77 1.37003 154.63C-2.79997 150.32 -6.47997 145.41 -9.70997 140.15C-12.91 134.89 -15.73 129.24 -17.83 123.45L-17.86 123.38C-18.09 122.74 -18.76 122.35 -19.45 122.48C-20.21 122.63 -20.7 123.37 -20.55 124.13C-19.27 130.63 -17.26 136.83 -14.73 142.95C-14.73 142.97 -14.71 142.98 -14.7 143C-0.379972 164.14 20.12 175.94 41.82 179.97C58.66 183.1 78.12 192.36 90.42 198.9C95.98 201.86 102.7 197.81 102.7 191.51V-9.36011H89.45H89.42Z" fill="#935055"/>
</g>
<g style="mix-blend-mode:multiply" opacity="0.5">
<path d="M97.81 237.8C97.59 217.55 82.08 213.27 82.08 213.27C83.17 214.74 84.14 216.29 85.02 217.94C85.33 218.51 85.72 219.14 86.13 219.67C86.14 219.69 86.16 219.7 86.17 219.72L81.85 523.47H97.82C97.86 466.66 98 255.31 97.81 237.79V237.8Z" fill="#935055"/>
</g>
<path d="M8.32002 250C-28.12 236.65 -73.67 226.22 -99.79 168.58C-101 178.35 -82.17 253.97 8.32002 250Z" fill="#EA9E10"/>
<path d="M297.92 135.85C297.92 135.85 316.45 202.2 250.61 222.2C265.24 208.06 293.04 190.94 297.92 135.85Z" fill="#EA9E10"/>
<path d="M139.19 444.88C142.41 447.43 146.74 448.01 150.57 446.53C167.03 440.16 178.79 424.41 181.76 407.2C183.34 398.06 182.03 389.72 178.95 381.09C175.3 370.85 171.83 360.89 173.46 349.84C176.7 327.97 164.34 316.59 151.31 329.32C147.2 333.09 146.69 341.05 146.17 346.18C145.59 351.88 146.07 357.64 145.16 363.34C143.73 372.33 138.18 379.46 134.84 387.76C131.28 396.6 129.51 405.97 129.7 415.51C129.9 425.43 130.69 438.17 139.18 444.89L139.19 444.88Z" fill="#EA9E10"/>
<path d="M122.82 493.15C122.57 493.19 122.29 493.14 122.07 492.98C121.62 492.66 121.52 492.03 121.84 491.58C122.26 491 163.52 432.66 159.88 360.69C159.85 360.14 160.28 359.67 160.83 359.64C161.38 359.61 161.85 360.04 161.88 360.59C165.56 433.27 123.89 492.16 123.47 492.74C123.31 492.96 123.08 493.1 122.83 493.14L122.82 493.15Z" fill="#FFD755"/>
<g style="mix-blend-mode:multiply" opacity="0.5">
<path d="M180.97 387.77C163.13 417.62 141.36 415.9 129.72 412.57C129.7 413.55 129.68 414.52 129.7 415.51C129.9 425.43 130.69 438.17 139.18 444.89C142.4 447.44 146.73 448.02 150.56 446.54C167.02 440.17 178.78 424.42 181.75 407.21C182.92 400.44 182.5 394.11 180.96 387.78L180.97 387.77Z" fill="#EA9E10"/>
</g>
<path d="M160.39 453.18C159.84 451.89 159.5 450.48 159.41 448.94C159.16 444.72 159.39 440.47 160.21 436.32C162.87 422.7 171.79 411.88 184.17 405.77C199.91 397.72 208.35 402.27 224.01 396.55C239.67 390.83 255.01 387.24 259.79 401.59C262.3 409.12 259.84 415.36 252.79 419.01C247.51 421.75 241.47 422.41 235.8 423.96C230.33 425.45 225.95 428.47 222.24 432.76C218.57 437 216.22 442.15 212.66 446.4C209.24 450.48 205.41 454.08 200.9 456.93C192.08 462.5 181.23 464.96 171.08 461.83C166.27 460.35 162.2 457.45 160.39 453.19V453.18Z" fill="#EA9E10"/>
<path d="M134.59 498.42C134.45 498.44 134.31 498.44 134.17 498.4C133.64 498.26 133.32 497.71 133.46 497.18C133.5 497.03 137.61 481.71 150.53 463.61C162.44 446.93 184.52 424.37 222.01 411.62C222.54 411.44 223.1 411.72 223.28 412.24C223.46 412.76 223.18 413.33 222.66 413.51C185.71 426.08 163.95 448.28 152.21 464.7C139.47 482.5 135.43 497.53 135.39 497.68C135.29 498.07 134.97 498.35 134.59 498.41V498.42Z" fill="#FFD755"/>
<g style="mix-blend-mode:multiply" opacity="0.5">
<path d="M235.81 423.96C241.48 422.41 247.52 421.75 252.8 419.01C257.64 416.5 260.32 412.77 260.7 408.24C219.4 426.95 185.91 415.79 175.45 411.31C167.66 417.56 162.19 426.16 160.2 436.32C159.39 440.48 159.15 444.72 159.4 448.94C159.49 450.48 159.83 451.89 160.38 453.18C162.19 457.45 166.26 460.34 171.07 461.82C181.21 464.95 192.07 462.49 200.89 456.92C205.4 454.07 209.24 450.47 212.65 446.39C216.21 442.14 218.55 436.99 222.23 432.75C225.94 428.46 230.33 425.44 235.79 423.95L235.81 423.96Z" fill="#EA9E10"/>
</g>
<path d="M-38.73 386.86C-24.43 365.49 16.45 410.64 28.11 462.31C23.12 420 3.05002 337.76 51.29 333.57C99.53 329.38 66.74 460.06 66.74 460.06C66.74 460.06 100.56 361.7 144.92 385.61C176.25 402.5 118.91 480.83 118.91 480.83C118.91 480.83 150.39 453.15 166.73 467.68C183.07 482.22 159.57 502.83 125.76 506.4H6.78003C6.78003 506.4 -67.29 432.31 -38.73 386.87V386.86Z" fill="#FF6273"/>
<path d="M51.29 500.82C50.84 500.82 50.43 500.51 50.32 500.05C39.17 452.45 46.58 355.27 46.65 354.29C46.69 353.74 47.17 353.34 47.72 353.37C48.27 353.41 48.68 353.89 48.64 354.45C48.56 355.42 41.18 452.29 52.26 499.59C52.39 500.13 52.05 500.67 51.51 500.79C51.43 500.81 51.36 500.82 51.28 500.82H51.29Z" fill="#FFBDC7"/>
<path d="M63.39 496.04C63.03 496.04 62.68 495.84 62.5 495.5C62.25 495.01 62.44 494.41 62.93 494.15C116.84 466.24 133.63 402.93 133.8 402.29C133.94 401.76 134.48 401.43 135.02 401.57C135.56 401.71 135.88 402.25 135.74 402.79C135.57 403.43 118.55 467.61 63.86 495.92C63.71 496 63.56 496.03 63.4 496.03L63.39 496.04Z" fill="#FFBDC7"/>
<path d="M97.32 499.81C96.83 499.81 96.4 499.44 96.33 498.94C96.26 498.39 96.64 497.89 97.19 497.82C133.94 492.98 157 476.06 157.23 475.89C157.67 475.56 158.3 475.65 158.63 476.09C158.96 476.53 158.87 477.16 158.43 477.49C158.2 477.66 134.72 494.89 97.46 499.8C97.42 499.8 97.37 499.8 97.33 499.8L97.32 499.81Z" fill="#FFBDC7"/>
<path d="M30.01 497.97C29.86 497.97 29.7 497.93 29.56 497.86C14.62 490.25 0.0600204 471.93 -13.71 443.4C-23.93 422.23 -29.87 403.03 -29.93 402.84C-30.09 402.31 -29.8 401.75 -29.27 401.59C-28.74 401.43 -28.18 401.72 -28.02 402.25C-27.79 403.01 -4.28997 478.37 30.47 496.08C30.96 496.33 31.16 496.93 30.91 497.42C30.73 497.77 30.38 497.97 30.02 497.97H30.01Z" fill="#FFBDC7"/>
<g style="mix-blend-mode:multiply" opacity="0.5">
<path d="M166.74 467.68C165.15 466.26 163.41 465.25 161.57 464.57C125.46 487.6 100.83 487.18 97.33 482.73C103.9 478.13 104.87 471.66 104.87 471.66C104.87 471.66 92.33 480.28 70 482.29C42.18 485.48 13.97 462.19 13.97 462.19C13.97 462.19 22.59 477.14 31.01 482.29C-3.70998 475.99 -32.23 415.56 -41.82 392.81C-61.11 438.48 6.78003 506.39 6.78003 506.39H125.76C159.58 502.82 183.07 482.21 166.73 467.67L166.74 467.68Z" fill="#FF6273"/>
</g>
<path d="M270.28 454.24L275.29 439.36C275.22 439.28 275.15 439.21 275.08 439.13C273.05 436.97 270.87 435 268.58 433.2L261.28 437.74L260.86 428.06C250.97 422.57 239.62 420.11 227.94 421.4C212.59 423.09 199.04 426.86 188.27 432.23L187.31 453.91C187.31 453.91 176.67 448.35 170.91 444.81C163.53 452.91 160.42 462.62 163.01 473.29C170.74 508.78 214.42 512.49 214.42 512.49C232.19 514.37 251.19 513.27 267.49 505.3C278.2 500.06 289.44 490.68 291.46 478.23C292.9 469.35 289.51 459.8 284.51 451.54L270.27 454.25L270.28 454.24Z" fill="#5062AB"/>
<path d="M272.25 470.71C272.6 470.28 272.54 469.65 272.11 469.3C271.68 468.95 271.05 469.01 270.7 469.44C258.75 483.96 237.04 484.42 232.11 484.33C232.73 480.71 233.08 477.08 233.25 473.53C233.38 473.37 233.47 473.18 233.49 472.96C233.51 472.72 233.43 472.49 233.3 472.31C233.93 454.63 230.01 439.33 229.93 439.04C229.79 438.51 229.24 438.19 228.71 438.33C228.18 438.47 227.86 439.02 228 439.55C228.07 439.83 231.87 454.63 231.35 471.74C214.98 469.45 209.82 448.22 209.77 448C209.64 447.46 209.1 447.12 208.57 447.25C208.03 447.38 207.7 447.91 207.82 448.45C207.87 448.68 213.38 471.4 231.27 473.74C230.93 480.58 229.86 487.7 227.56 494.36C199.02 490.95 189.59 466.56 189.5 466.31C189.31 465.79 188.73 465.53 188.21 465.72C187.69 465.91 187.43 466.49 187.62 467C187.72 467.26 197.44 492.51 226.86 496.27C224.49 502.4 220.99 508.04 215.99 512.61C216.88 512.7 217.78 512.77 218.67 512.84C223.44 508.05 226.76 502.28 229.03 496.09C229.16 495.94 229.25 495.76 229.27 495.54C229.27 495.5 229.27 495.47 229.26 495.44C230.31 492.46 231.12 489.4 231.73 486.3C233.49 486.36 237.89 486.39 243.4 485.54C252.36 484.15 264.21 480.42 272.23 470.69L272.25 470.71Z" fill="#7E95E0"/>
<g style="mix-blend-mode:multiply" opacity="0.5">
<path d="M212.27 463.2C212.27 463.2 217.01 475.29 223.33 482.29C203.03 477.94 192.86 462.54 187.47 450.05L187.3 453.9C187.3 453.9 176.66 448.34 170.9 444.8C163.52 452.9 160.41 462.61 163 473.28C170.73 508.77 214.41 512.47 214.41 512.47C232.18 514.35 251.18 513.25 267.48 505.28C277.79 500.23 288.56 491.36 291.16 479.6C236.95 500.51 212.26 463.19 212.26 463.19L212.27 463.2Z" fill="#5062AB"/>
</g>
<path d="M664.1 450.49C664.1 450.49 626.38 451.23 619.77 423.72C617.05 413.45 628.36 411.73 631.74 414.4C629.57 409.21 632.15 403.31 639.5 404.87C637.16 400.08 628.03 383.66 642.94 370.25C649.31 364.22 661.9 368.64 668.49 377.14C668.58 372.26 667.35 364.81 675.1 359.65C682.85 354.48 688.62 365.78 688.62 365.78V448.73C688.62 448.73 673.79 451.26 664.1 450.48V450.49Z" fill="#FF6273"/>
<g style="mix-blend-mode:multiply" opacity="0.5">
<path d="M688.63 372.17C687.72 372.47 686.86 372.87 686.1 373.39C684.24 380.3 680.94 386.81 676.46 392.4C674.78 394.5 671.85 396.62 669.68 395.03C669.1 398.39 665.64 400.98 662.25 400.58C663.05 405.78 661.66 411.44 657.96 415.19C654.26 418.94 648.15 420.35 643.46 417.97C642.7 420.49 639.71 422.08 637.2 421.31C637.35 426.22 633.14 430.7 628.27 431.38C626.25 431.66 624.2 431.34 622.32 430.57C632.97 451.11 664.11 450.5 664.11 450.5C673.81 451.28 688.63 448.75 688.63 448.75V372.18V372.17Z" fill="#FF6273"/>
</g>
<path d="M830.74 94.96C795.28 47.89 818.68 -25.98 829.32 -44.94C839.96 -63.9 760.1 -92.01 701.11 -71.74C642.12 -51.47 630.05 -52.78 594.6 -69.13C559.15 -85.47 480.78 -49.29 507.91 -19.45C507.91 -19.45 555.68 10.4 556.35 60.52C557.02 110.64 505.33 153.76 531.89 211.31C558.44 268.85 607.71 289.62 645.65 297.22C683.6 304.82 686.05 331.96 686.05 331.96C686.05 331.96 715.37 347.42 725.35 323.77C733.5 303 760.53 272.33 806.63 250C852.72 227.67 866.2 142.03 830.74 94.96Z" fill="#FF6273"/>
<g style="mix-blend-mode:multiply" opacity="0.5">
<path d="M841.03 112.53C845.16 151.78 832.52 193.73 816.36 216.69C798.47 242.12 774.66 241.56 745.2 255.28C767.01 243.02 774.42 205.84 774.42 205.84C774.42 205.84 765.68 214.66 741.5 232.18C685.87 268.34 627.06 234.46 591.78 198.7C598.43 231.08 622.68 250.43 637.73 264.98C511.07 215.96 586.21 122.27 578.7 57.1901C573.16 9.1001 528.52 -13.7399 505.59 -22.3899C506.26 -21.4099 507.02 -20.4199 507.91 -19.4499C507.91 -19.4499 555.68 10.4001 556.35 60.5201C557.02 110.64 505.33 153.76 531.89 211.31C558.44 268.85 607.71 289.62 645.65 297.22C683.6 304.82 686.05 331.96 686.05 331.96C686.05 331.96 715.37 347.42 725.35 323.77C733.5 303 760.53 272.33 806.63 250C847.44 230.23 862.67 160.85 841.03 112.53Z" fill="#FF6273"/>
</g>
<path d="M788.25 114.03C788.14 113.78 787.85 113.66 787.6 113.77L787.55 113.79L785.21 114.8C784.43 115.12 783.68 115.51 782.85 115.71L780.44 116.43C780.05 116.57 779.64 116.65 779.22 116.71L777.99 116.93C776.37 117.3 774.7 117.32 773.07 117.45C771.42 117.39 769.79 117.42 768.18 117.13C764.96 116.7 761.82 115.82 758.87 114.53L756.69 113.5C756.6 113.45 756.51 113.4 756.42 113.35C759.9 111.17 763.4 108.88 766.71 106.24C770.11 103.55 773.33 100.48 775.97 96.9001C777.27 95.1001 778.41 93.1701 779.34 91.1501C780.24 89.1301 780.92 87.0601 781.44 84.9701C781.63 84.2301 781.24 83.4401 780.5 83.1501C779.7 82.8401 778.8 83.2301 778.49 84.0201C777.76 85.8901 776.89 87.6801 775.88 89.3401C774.85 90.9701 773.67 92.4901 772.34 93.9001C769.66 96.6901 766.5 99.0301 763.09 101.06C759.7 103.11 756.07 104.85 752.36 106.56C748.75 108.21 744.93 109.6 740.96 111.27C738.98 112.11 736.97 113 734.96 114.04C733.97 114.56 732.93 115.12 731.99 115.69C731.03 116.25 730.08 116.82 729.14 117.44C726.38 119.21 723.71 121.17 721.17 123.34L719.28 -9.35986H685.84L684.52 83.2701C679.16 77.0901 672.95 71.6601 665.82 67.4201C664.13 66.4501 662.46 65.6101 660.85 64.8301C658.53 63.7001 658.07 60.6001 659.96 58.8401L660 58.8001C662.75 56.2401 665.22 53.3401 667.15 50.0901C669.09 46.8601 670.45 43.2601 671.05 39.5801C671.68 35.9001 671.46 32.1801 670.74 28.6701C670.63 28.1501 670.17 27.7801 669.63 27.8001C669.03 27.8301 668.57 28.3401 668.59 28.9401V28.9701C668.74 32.3201 668.4 35.6401 667.36 38.7001C666.35 41.7601 664.74 44.5601 662.7 46.9901C660.68 49.4301 658.24 51.5201 655.6 53.2901C654.28 54.1801 652.9 54.9801 651.49 55.7001C651.49 55.7001 651.48 55.7001 651.47 55.7101C649.45 56.7001 647.01 56.1101 645.62 54.3401C645.5 54.1801 645.37 54.0201 645.25 53.8601C642.86 50.6801 641.1 46.9901 640 42.9801C638.89 38.9901 638.41 34.7701 638.77 30.5801V30.5601C638.84 29.7301 638.26 28.9601 637.39 28.8401C636.56 28.7301 635.78 29.3501 635.6 30.1701C634.58 34.6701 634.47 39.3501 635.08 43.9701C635.68 48.6001 637.11 53.2901 639.46 57.5501C640.64 59.6901 642.01 61.7101 643.65 63.6101C645.33 65.5501 647.24 67.2301 649.17 68.6701L649.2 68.6901C650.56 69.7101 650.22 71.8501 648.61 72.3901C648.37 72.4701 648.14 72.5501 647.9 72.6201C644.17 73.7901 640.28 74.4301 636.4 74.2401C632.52 74.0901 628.69 72.9701 625.25 70.9501C621.81 68.9201 618.86 65.9801 616.41 62.6201C616.27 62.4201 615.99 62.3501 615.77 62.4701C615.53 62.6001 615.43 62.9001 615.56 63.1501C617.54 66.9101 620.17 70.4801 623.64 73.2701C627.09 76.0601 631.35 78.0201 635.82 78.8501C640.29 79.7301 644.9 79.6401 649.35 78.9201C651.58 78.5601 653.78 78.0601 655.95 77.4101H655.98C658.48 76.6501 661.19 77.2801 663.09 79.0701C664.99 80.8501 667.26 83.0701 668.58 84.6601C671.17 87.7501 673.48 91.0901 675.53 94.5901C679.17 100.83 681.98 107.57 684.1 114.53L682.77 208.1C680.09 206.47 677.35 205 674.58 203.65C672.03 202.36 669.39 201.31 666.78 200.21C664.82 199.51 662.89 198.76 660.92 198.11C661.11 193.82 660.5 189.61 659.24 185.65C658.4 182.95 657.06 180.15 655.42 177.8C653.79 175.43 651.89 173.44 650.04 171.58C648.18 169.72 646.32 168 644.61 166.21C642.89 164.41 641.41 162.59 640.1 160.47C637.42 156.19 635.04 151.72 633.44 146.89C633.36 146.66 633.13 146.51 632.88 146.55C632.61 146.6 632.42 146.86 632.47 147.13C633.36 152.25 635.12 157.22 637.21 161.99C638.25 164.42 639.67 166.85 641.2 169C642.74 171.17 644.36 173.2 645.86 175.21C647.35 177.22 648.72 179.2 649.71 181.24C650.71 183.28 651.31 185.27 651.68 187.55C652.12 190.2 652.15 192.91 651.81 195.5C651.44 195.41 651.07 195.31 650.71 195.22C649.36 194.86 647.98 194.64 646.62 194.35C645.25 194.09 643.9 193.76 642.52 193.59C639.77 193.18 637.03 192.74 634.26 192.53L626.4 191.76C621.38 191.1 616.34 190.1 611.59 188.24C606.82 186.45 602.26 184.04 598.16 180.92C596.09 179.38 594.19 177.63 592.41 175.74C590.65 173.86 589.01 171.75 587.78 169.57L587.74 169.5C587.53 169.14 587.08 168.97 586.69 169.14C586.26 169.32 586.05 169.81 586.23 170.24C587.31 172.87 588.71 175.2 590.34 177.43C591.96 179.65 593.76 181.77 595.75 183.69C599.71 187.57 604.32 190.8 609.27 193.4C614.21 196.06 619.56 197.85 624.98 199.26L629.77 200.34C628.4 201.24 627.07 202.17 625.78 203.1L619.81 207.43C617.83 208.85 615.92 210.1 613.85 211.2C609.75 213.39 605.24 214.77 600.55 214.85C595.88 214.93 591.07 213.77 587.04 211.1C586.83 210.96 586.55 211 586.38 211.19C586.2 211.4 586.22 211.72 586.43 211.9C590.26 215.21 595.27 217.15 600.4 217.71C602.98 217.98 605.61 217.92 608.2 217.53C610.78 217.12 613.33 216.44 615.76 215.51C618.19 214.6 620.57 213.42 622.76 212.24L629.27 208.67C633.39 206.42 637.47 204.44 641.56 203.33C642.39 203.59 643.21 203.87 644.04 204.14C645.25 204.56 646.48 204.91 647.66 205.39C650.04 206.32 652.42 207.21 654.71 208.31C657.05 209.3 659.27 210.52 661.51 211.65C663.69 212.92 665.89 214.11 667.95 215.51C672.12 218.22 676.05 221.22 679.42 224.51C680.21 225.36 681.07 226.17 681.81 227.02L682.48 227.82L678.28 523.5H726.86L721.48 144.61C721.62 144.31 721.74 144 721.88 143.7C723.41 140.49 725.45 137.43 727.78 134.54C730.11 131.64 732.81 128.95 735.74 126.47C737.2 125.22 738.74 124.03 740.26 122.96C741.81 121.87 743.48 120.85 745.21 119.84C746.72 118.96 748.3 118.08 749.9 117.19C750.53 117.49 751.16 117.77 751.8 118.03C752.65 118.4 753.54 118.68 754.4 119.01C755.28 119.3 756.17 119.55 757.05 119.82C760.61 120.78 764.29 121.25 767.94 121.2C769.76 121.25 771.58 120.96 773.37 120.75C775.14 120.35 776.92 120.06 778.6 119.41L779.87 118.98C780.29 118.85 780.71 118.7 781.11 118.49L783.52 117.36C784.34 117.02 785.07 116.51 785.82 116.06L788.05 114.68C788.26 114.55 788.34 114.29 788.25 114.06V114.03Z" fill="#935055"/>
<path d="M713.9 13.9101C711.51 15.5501 709.01 17.0401 706.41 18.4401C703.8 19.8101 701.12 21.0901 698.33 22.3601C701.41 22.3101 704.44 21.6001 707.34 20.5801C710.25 19.5701 713.04 18.1401 715.61 16.3801C717.05 15.4101 718.39 14.2801 719.62 13.0401L719.57 9.34009C717.78 10.9901 715.93 12.5601 713.9 13.9201V13.9101Z" fill="#AA616A"/>
<path d="M686.53 8.53004C688.56 8.11004 690.55 7.41004 692.4 6.46004C694.26 5.52004 696.01 4.35004 697.53 2.93004C699.08 1.55004 700.39 -0.119961 701.37 -1.95996C699.5 -0.989961 697.86 0.0900369 696.14 1.03004C694.46 2.02004 692.76 2.91004 691.05 3.79004C689.34 4.67004 687.6 5.49003 685.82 6.30003L685.65 6.38004L685.62 8.70004C685.93 8.65004 686.24 8.61004 686.54 8.54004L686.53 8.53004Z" fill="#AA616A"/>
<path d="M709.8 49.84L708.93 50.46C708.36 50.88 707.81 51.32 707.24 51.71C706.64 52.07 706.05 52.45 705.47 52.82C703.09 54.23 700.65 55.52 698.05 56.48C695.47 57.48 692.82 58.32 690.09 59.02C688.38 59.46 686.64 59.85 684.88 60.22L684.86 61.38C686.73 61.55 688.62 61.51 690.49 61.34C693.43 61.05 696.35 60.36 699.14 59.28C701.94 58.24 704.55 56.63 706.85 54.73C707.41 54.23 707.96 53.73 708.5 53.21C709 52.66 709.48 52.07 709.95 51.51L710.64 50.64C710.84 50.32 711.04 50.01 711.22 49.69C711.6 49.05 711.96 48.41 712.29 47.76C711.69 48.21 711.14 48.68 710.59 49.14C710.31 49.37 710.05 49.61 709.79 49.84H709.8Z" fill="#AA616A"/>
<path d="M709.2 86.61C706.28 87.83 703.23 88.8101 700 89.5201C703.29 90.0601 706.7 89.6901 709.95 88.8201C713.21 87.9501 716.36 86.55 719.15 84.61C719.68 84.29 720.15 83.91 720.63 83.53L720.58 79.8C719.56 80.61 718.53 81.3801 717.47 82.1301C714.91 83.9301 712.11 85.36 709.21 86.61H709.2Z" fill="#AA616A"/>
<path d="M688.14 130.08C690.79 129.9 693.42 129.32 695.91 128.36C697.13 127.83 698.38 127.35 699.51 126.66C700.08 126.32 700.66 126 701.22 125.65C701.76 125.27 702.3 124.88 702.83 124.49C703.92 123.75 704.83 122.76 705.79 121.89C706.69 120.93 707.53 119.91 708.28 118.85C707.07 119.42 706.01 120.12 704.89 120.72L703.22 121.63L702.4 122.09L701.56 122.5C701 122.78 700.45 123.06 699.91 123.35L698.22 124.12L697.39 124.52L696.53 124.86C695.96 125.09 695.4 125.35 694.83 125.56C692.54 126.44 690.2 127.16 687.79 127.75C686.51 128.06 685.22 128.33 683.91 128.56L683.89 129.95C685.29 130.13 686.73 130.15 688.14 130.07V130.08Z" fill="#AA616A"/>
<path d="M714.84 158.82L712.49 160.3C711.72 160.82 710.91 161.26 710.1 161.71C706.9 163.56 703.54 165.12 700.07 166.48C696.59 167.82 693 168.9 689.3 169.95C693.14 170.14 697.03 169.67 700.78 168.7C701.72 168.45 702.65 168.17 703.58 167.88C704.5 167.56 705.4 167.21 706.32 166.87C708.11 166.11 709.88 165.29 711.58 164.32C713.3 163.41 714.89 162.26 716.48 161.14C717.98 159.89 719.56 158.75 720.89 157.32C721.16 157.07 721.4 156.79 721.66 156.52L721.62 153.76C720.88 154.38 720.12 154.98 719.35 155.55C717.9 156.72 716.36 157.76 714.84 158.82Z" fill="#AA616A"/>
<path d="M683.79 242.69C686.23 242.57 688.66 242.07 690.97 241.22C692.14 240.83 693.24 240.26 694.34 239.71C695.39 239.06 696.46 238.46 697.4 237.66C699.35 236.17 700.96 234.27 702.19 232.19C700.06 233.4 698.17 234.69 696.11 235.68C695.13 236.24 694.07 236.67 693.07 237.16L691.51 237.8C691 238.04 690.47 238.22 689.94 238.4C687.84 239.18 685.68 239.83 683.46 240.36C683.08 240.45 682.69 240.53 682.31 240.62L682.28 242.71C682.78 242.71 683.29 242.71 683.79 242.69Z" fill="#AA616A"/>
<path d="M694.85 197.11C697.48 196.34 700.07 195.34 702.47 193.93C704.84 192.5 707.07 190.73 708.63 188.45C706.22 189.79 703.87 190.86 701.45 191.8C699.03 192.74 696.53 193.48 694.03 194.22C691.53 194.96 688.98 195.58 686.41 196.24C685.26 196.54 684.1 196.83 682.93 197.14L682.91 198.69C684.21 198.71 685.5 198.65 686.8 198.56C689.51 198.32 692.22 197.87 694.85 197.1V197.11Z" fill="#AA616A"/>
<path d="M723.17 262.82L723.13 259.71L723.11 259.73C720.7 261.44 718.21 262.99 715.54 264.23C712.89 265.5 710.13 266.58 707.3 267.52C704.45 268.43 701.54 269.22 698.51 269.93C701.59 270.46 704.76 270.3 707.85 269.78C710.95 269.27 713.98 268.29 716.84 266.92C719.13 265.86 721.26 264.45 723.18 262.81L723.17 262.82Z" fill="#AA616A"/>
<path d="M708.74 216.28C710.89 215.9 713 215.26 715.02 214.38C717.04 213.52 718.94 212.33 720.66 210.94C721.29 210.42 721.86 209.85 722.42 209.25L722.39 207.28C721.37 207.88 720.38 208.46 719.34 208.98C717.51 209.92 715.7 210.83 713.81 211.63C711.93 212.45 710.04 213.24 708.1 214.01C706.16 214.8 704.21 215.56 702.19 216.45C704.38 216.79 706.58 216.62 708.74 216.27V216.28Z" fill="#AA616A"/>
<path d="M694.03 316.6C696.85 315.69 699.58 314.46 702.12 312.91C704.62 311.29 706.92 309.31 708.62 306.89C706.06 308.38 703.59 309.69 701.01 310.83C698.41 311.91 695.79 312.87 693.11 313.75C690.42 314.59 687.71 315.36 684.95 316.09L681.21 317.08L681.19 318.63C682.59 318.63 683.98 318.54 685.37 318.4C688.29 318.09 691.19 317.49 694.02 316.61L694.03 316.6Z" fill="#AA616A"/>
<path d="M724.5 356.66C722.91 357.54 721.29 358.37 719.61 359.09C716.84 360.31 714 361.39 711.1 362.38C708.19 363.34 705.23 364.23 702.18 365.09C705.35 365.46 708.55 365.2 711.68 364.64C714.82 364.08 717.89 363.12 720.83 361.83C722.11 361.28 723.34 360.62 724.54 359.91L724.49 356.67L724.5 356.66Z" fill="#AA616A"/>
<path d="M682.87 399.23C685.89 398.74 688.86 397.88 691.72 396.75C694.58 395.63 697.31 394.14 699.81 392.33C700.43 391.86 701.05 391.42 701.65 390.94L703.35 389.38L704.17 388.58C704.42 388.29 704.68 388.01 704.93 387.71C705.42 387.12 705.91 386.53 706.36 385.92C703.69 387.45 701.23 389.05 698.58 390.34C695.96 391.66 693.32 392.9 690.6 393.97C687.89 395.06 685.13 396.04 682.32 396.97C681.58 397.21 680.83 397.43 680.08 397.66L680.05 399.59C680.99 399.5 681.93 399.39 682.87 399.23Z" fill="#AA616A"/>
<path d="M741.51 111.05C741.33 111.12 741.16 111.19 740.98 111.27C740.28 111.56 739.58 111.88 738.87 112.19C738.22 113.39 737.5 114.52 736.77 115.63C735.98 116.84 735.09 117.98 734.15 119.14C733.2 120.3 732.2 121.43 731.07 122.66C732.77 122.54 734.34 121.82 735.72 120.89C737.1 119.94 738.33 118.73 739.26 117.31C740.19 115.9 740.92 114.35 741.26 112.7C741.39 112.15 741.46 111.6 741.51 111.04V111.05Z" fill="#AA616A"/>
<path d="M671.2 72.2601L668.36 73.42C667.38 73.83 666.39 74.2501 665.26 74.8201C666.35 75.5001 667.58 75.7201 668.78 75.7401C669.99 75.7401 671.2 75.51 672.32 75.05C673.17 74.71 673.98 74.25 674.69 73.67C673.92 73.03 673.13 72.4201 672.33 71.8101L671.2 72.2701V72.2601Z" fill="#AA616A"/>
<path d="M657.31 208.63L656.1 208.91C657.46 209.54 658.8 210.23 660.13 210.92C661.22 210.53 662.29 210.06 663.31 209.49C664.98 208.58 666.47 207.33 667.66 205.84C665.78 206.29 664.12 206.88 662.4 207.32C660.7 207.79 659.03 208.24 657.32 208.63H657.31Z" fill="#AA616A"/>
<path d="M634.25 192.53L631.41 192.25C630.52 192.67 629.61 193.09 628.68 193.5C627.51 194.03 626.32 194.56 625.01 195.21C626.37 195.8 627.84 195.9 629.26 195.78C630.68 195.65 632.09 195.26 633.38 194.64C634.43 194.15 635.41 193.5 636.27 192.72C635.6 192.65 634.93 192.58 634.25 192.53Z" fill="#AA616A"/>
<g style="mix-blend-mode:multiply" opacity="0.5">
<path d="M685.87 -9.35986L684.55 83.2701C679.19 77.0901 672.98 71.6601 665.85 67.4201C664.16 66.4501 662.49 65.6101 660.88 64.8301C658.56 63.7001 658.1 60.6001 659.99 58.8401L660.03 58.8001C662.78 56.2401 665.25 53.3401 667.18 50.0901C669.12 46.8601 670.48 43.2601 671.08 39.5801C671.71 35.9001 671.49 32.1801 670.77 28.6701C670.66 28.1501 670.2 27.7801 669.66 27.8001C669.06 27.8301 668.6 28.3401 668.62 28.9401V28.9701C668.77 32.3201 668.43 35.6401 667.39 38.7001C666.38 41.7601 664.77 44.5601 662.73 46.9901C660.71 49.4301 658.27 51.5201 655.63 53.2901C654.31 54.1801 652.93 54.9801 651.52 55.7001H651.5C649.49 56.7101 647.07 56.1401 645.68 54.3801C645.55 54.2101 645.41 54.0401 645.28 53.8601C642.89 50.6801 641.13 46.9901 640.03 42.9801C638.92 38.9901 638.44 34.7701 638.8 30.5801V30.5601C634.84 49.6201 642.24 56.4501 657.23 67.0401C666.58 73.6501 677.91 85.4101 685.1 93.3101C687.7 96.1701 692.46 94.4001 692.57 90.5401L695.49 -9.35986H685.88H685.87Z" fill="#935055"/>
</g>
<g style="mix-blend-mode:multiply" opacity="0.5">
<path d="M692.24 118.86C692.52 111.14 677.86 98.8401 677.86 98.8401C680.4 103.85 682.47 109.12 684.12 114.52L682.79 208.09C680.11 206.46 677.37 204.99 674.6 203.64C672.05 202.35 669.41 201.3 666.8 200.2C664.84 199.5 662.91 198.75 660.94 198.1C661.13 193.81 660.52 189.6 659.26 185.64C658.42 182.94 657.08 180.14 655.44 177.79C653.81 175.42 651.91 173.43 650.06 171.57C648.2 169.71 646.34 167.99 644.63 166.2C642.91 164.4 641.43 162.58 640.12 160.46C637.44 156.18 635.06 151.71 633.46 146.88C633.38 146.65 633.15 146.5 632.9 146.54C632.63 146.59 632.44 146.85 632.49 147.12C633.38 152.24 635.14 157.21 637.23 161.98C638.27 164.41 639.69 166.84 641.22 168.99C642.76 171.16 644.38 173.19 645.88 175.2C647.37 177.21 648.74 179.19 649.73 181.23C650.73 183.27 651.33 185.26 651.7 187.54C652.08 189.85 652.16 192.2 651.94 194.48C651.48 194.78 651.26 194.93 650.8 195.23C649.43 194.86 648.02 194.64 646.63 194.34C645.26 194.08 643.91 193.75 642.53 193.58C639.78 193.17 637.04 192.73 634.27 192.52L626.41 191.75C621.39 191.09 616.35 190.09 611.6 188.23C606.83 186.44 602.27 184.03 598.17 180.91C596.1 179.37 594.2 177.62 592.42 175.73C590.66 173.85 589.02 171.74 587.79 169.56C598.73 192.61 623.83 193.74 641.8 197.08C654.73 199.48 675.16 210.25 685.62 216.1C688.59 217.76 692.25 215.61 692.24 212.21C692.18 189.68 692.03 125.2 692.26 118.84L692.24 118.86Z" fill="#935055"/>
</g>
<g style="mix-blend-mode:multiply" opacity="0.5">
<path d="M691.51 237.8C689.51 232.27 682.49 227.8 682.49 227.8L678.29 523.48H693.21C693.24 460.24 693.21 242.52 691.5 237.8H691.51Z" fill="#935055"/>
</g>
<path d="M671.17 503.57C671.17 503.57 734.08 515.03 775.75 501.79C780.48 495.01 798.99 456.38 779.68 446.65C768.58 441.03 761.92 460.06 761.92 460.06C761.92 460.06 761.02 450.63 755.23 449.46C749.44 448.29 745.33 457.29 743.51 462.85C741.44 452.5 737.05 392.04 698.31 404.74C684.23 409.9 674.03 429.82 684.93 452.16C681.2 450 666.06 445.27 676.01 470.42C667.98 460.34 659.73 450.7 651.47 458.15C643.21 465.6 654.58 490.61 671.17 503.57Z" fill="#FFD755"/>
<g style="mix-blend-mode:multiply" opacity="0.5">
<path d="M775.74 501.79C777.48 499.29 781.09 492.47 783.99 484.37C763.57 488.54 740.79 482.08 732.2 464.86C723.71 447.85 699.25 423.86 687.16 413.03C680.02 422.06 677.3 436.51 684.93 452.15C681.2 449.99 666.06 445.26 676.01 470.41C671.47 464.72 666.87 459.16 662.23 456.75C658.57 467.85 655.76 478.4 655.42 485.37C659.42 492.09 664.92 498.68 671.17 503.55C671.17 503.55 734.08 515.01 775.75 501.77L775.74 501.79Z" fill="#FFD755"/>
</g>
<path d="M732.9 474.86L716.7 478.61C716.7 478.61 722.29 468.09 725.74 462.31C722.96 458.33 720.15 455.12 717.75 453.03C702.34 439.87 688.15 431.71 675.32 427.09L660.03 443.32L652.35 422.22C623.44 420.51 604.77 436.89 599.36 444.89C573.77 495.36 613.95 523.48 613.95 523.48H728.36C742.85 510.02 740.01 490.39 732.9 474.86Z" fill="#5062AB"/>
<path d="M665.55 503.56C669.1 500.84 680.88 489.67 679.97 461.94C679.95 461.4 679.51 460.97 678.97 460.97C678.96 460.97 678.95 460.97 678.94 460.97C678.39 460.99 677.95 461.45 677.97 462C678.84 488.7 667.36 499.56 664.28 501.99C645.36 478.19 636.21 447.83 636.08 447.39C635.92 446.86 635.37 446.55 634.84 446.71C634.31 446.87 634.01 447.42 634.16 447.95C634.26 448.29 639.61 466.05 650.6 485.17C625.36 485.67 612.19 465.54 612.06 465.34C611.76 464.88 611.15 464.74 610.68 465.03C610.21 465.33 610.08 465.94 610.37 466.41C610.51 466.62 623.89 487.19 649.67 487.19C650.35 487.19 651.05 487.16 651.75 487.14C655.06 492.73 658.85 498.38 663.13 503.7C663.15 503.77 663.16 503.84 663.2 503.9C663.29 504.05 663.42 504.17 663.57 504.25C669.63 511.7 676.66 518.46 684.67 523.46H688.59C679.77 518.61 672.1 511.49 665.55 503.54V503.56Z" fill="#7E95E0"/>
<g style="mix-blend-mode:multiply" opacity="0.5">
<path d="M690.1 503.83C690.1 503.83 698.8 500.35 704.28 491.4C678.42 499.86 636.89 477.22 636.89 477.22C636.89 477.22 643.9 494.04 661.42 498.23C621.22 503.66 603.83 477.32 592.9 461.81C582.72 501.6 613.97 523.48 613.97 523.48H728.38C733.64 518.59 736.61 512.88 737.93 506.86C714.91 513.11 690.12 503.83 690.12 503.83H690.1Z" fill="#5062AB"/>
</g>
<g style="mix-blend-mode:multiply" opacity="0.5">
<path d="M578.71 419.91C598.482 419.91 614.51 417.412 614.51 414.33C614.51 411.248 598.482 408.75 578.71 408.75C558.938 408.75 542.91 411.248 542.91 414.33C542.91 417.412 558.938 419.91 578.71 419.91Z" fill="#FFC146"/>
</g>
<path d="M571.85 400.27C571.77 400.48 569.64 406.34 567.22 407.17C564.81 408 562.73 408.82 563.81 410.79C564.89 412.76 573.48 413.06 577.94 403.31C579.35 400.6 578.65 398.23 577.08 397.36C575.51 396.49 573.02 397.1 571.85 400.26V400.27Z" fill="#536FBC"/>
<path d="M553.65 393.45C553.65 393.45 541.05 371.63 550.93 362.77C553.81 360.2 559.88 363.47 560.11 370.94C560.34 378.41 557.04 392.99 557.04 392.99L553.65 393.46V393.45Z" fill="#536FBC"/>
<path d="M595.7 382.83C579.79 377.69 570.66 387.61 568.24 390.77C574.54 381.38 576.47 361.14 568.65 358.56C567.96 358.33 567.22 358.31 566.5 358.37C548.53 359.67 553.66 393.45 553.66 393.45C548.24 398.47 547.45 403.84 550.94 407.56C556.84 413.87 567.04 406.45 568.09 404.21C568.14 404.11 568.27 404.09 568.36 404.17C572.52 407.84 577.49 406.29 584.15 406.63C590.92 406.98 596.28 410.6 598.5 409.78C608.74 401.95 605.62 385.75 595.7 382.83Z" fill="#7E95E0"/>
<path d="M561.89 392.29C560.87 392.29 559.98 391.57 559.8 390.56C559.34 387.95 559.04 385.3 558.86 382.66C558.56 378.21 558.15 372.18 560.9 368.34C562.21 366.51 565.15 365.22 567.17 366.69C569.1 368.09 569.39 371.14 569.38 373.31C569.34 378.47 567.51 382.79 565.37 387.4C565.24 387.68 564.44 389.73 563.8 391.08C563.45 391.81 562.7 392.28 561.89 392.28V392.29Z" fill="#FFEEC0"/>
<path d="M613.62 393.3C612.45 393.45 611.39 393.16 610.28 392.99C610.04 392.95 609.79 392.92 609.55 392.9C608.17 392.8 606.76 393.06 605.5 393.62C603.94 394.3 602.56 395.47 601.76 396.99C601.04 398.35 600.55 400.21 601.47 401.59C602.59 403.27 605.32 403.38 607.12 403.08C608.63 402.83 609.96 402.04 611.03 400.97C612.81 399.17 613.91 396.67 614.48 394.24C614.61 393.71 614.16 393.23 613.62 393.31V393.3Z" fill="#7E95E0"/>
<path d="M598.5 409.78C598.5 409.78 601.98 406.64 600.38 402.19C599.15 398.78 594.99 399.03 592.1 399.81C588.66 400.74 580.84 403.69 584.13 408.55C584.83 409.59 587.42 409.91 589.28 410.01C589.76 410.03 589.88 410.68 589.45 410.88C586.81 412.14 582.29 414.52 582.8 415.83C583.51 417.67 593.01 415.7 598.02 413.81C603.03 411.92 598.49 409.77 598.49 409.77L598.5 409.78Z" fill="#7E95E0"/>
<path d="M574.61 402.89C574.55 403.11 572.94 409.13 570.61 410.17C568.28 411.21 566.29 412.22 567.54 414.08C568.79 415.94 577.37 415.48 580.95 405.38C582.11 402.55 581.2 400.26 579.56 399.53C577.92 398.8 575.49 399.64 574.61 402.89Z" fill="#7E95E0"/>
<path d="M555.95 402.59C556.784 402.59 557.46 401.914 557.46 401.08C557.46 400.246 556.784 399.57 555.95 399.57C555.116 399.57 554.44 400.246 554.44 401.08C554.44 401.914 555.116 402.59 555.95 402.59Z" fill="#FFEEC0"/>
<path d="M550.95 263.31C550.86 263.07 550.52 263.07 550.43 263.31C549.46 265.76 546.1 274.45 545.73 278.2C545.8 280.25 550.69 282.71 550.69 282.71C550.69 282.71 555.58 280.25 555.65 278.2C555.29 274.45 551.92 265.76 550.95 263.31Z" fill="#7E95E0"/>
<path d="M529.31 275.51C529.22 275.27 528.88 275.27 528.79 275.51C527.82 277.96 524.46 286.65 524.09 290.4C524.16 292.45 529.05 294.91 529.05 294.91C529.05 294.91 533.94 292.45 534.01 290.4C533.65 286.65 530.28 277.96 529.31 275.51Z" fill="#7E95E0"/>
<path d="M507.67 287.71C507.58 287.47 507.24 287.47 507.15 287.71C506.18 290.16 502.82 298.85 502.45 302.6C502.52 304.65 507.41 307.11 507.41 307.11C507.41 307.11 512.3 304.65 512.37 302.6C512.01 298.85 508.64 290.16 507.67 287.71Z" fill="#7E95E0"/>
</g>
</svg>
