<svg width="23" height="40" viewBox="0 0 23 40" fill="none" xmlns="http://www.w3.org/2000/svg">
<path d="M9.66586 0.0983972C9.12615 0.247014 8.75852 0.450384 8.33613 0.825837C7.31928 1.741 6.94383 3.06291 7.28799 4.52561C7.43661 5.18265 7.98415 6.32466 8.49257 7.05992C9.49378 8.50697 11.1833 9.75066 12.6304 10.1261C13.0997 10.2434 13.1701 10.2434 13.6472 10.1261C15.1256 9.75848 16.8699 8.45222 17.8789 6.95823C19.4902 4.56472 19.5371 2.27289 18.004 0.872769C16.6978 -0.323987 14.977 -0.284877 13.6081 0.95881L13.1466 1.37337L12.7321 0.997919C12.1845 0.497316 11.77 0.262658 11.1911 0.114041C10.6436 -0.0345756 10.1508 -0.0345756 9.66586 0.0983972Z" fill="#F7524B"/>
<path d="M6.74056 9.53944C5.88797 9.74281 5.02756 10.4546 4.60518 11.315C4.40181 11.7218 4.38616 11.8391 4.38616 12.6213C4.38616 13.8493 4.52696 14.1153 6.06006 15.7657C6.70928 16.4619 7.24117 17.0485 7.24117 17.0641C7.24117 17.0798 7.06126 17.1189 6.83443 17.1424C6.27125 17.2128 5.62985 17.5491 5.14489 18.0341C4.01853 19.1526 3.9012 20.8969 4.8633 22.1797C4.96499 22.3127 5.05103 22.4456 5.05103 22.4613C5.05103 22.4769 4.87894 22.516 4.66775 22.5473C3.7917 22.6646 2.8296 23.3764 2.39939 24.2212C1.82839 25.3476 1.98483 26.7946 2.77484 27.6941C2.90782 27.8506 3.01732 27.9914 3.01732 28.007C3.01732 28.0305 2.84524 28.0696 2.62623 28.0931C1.76582 28.1947 0.741142 28.9535 0.334402 29.7904C0.0449902 30.3927 -0.0645168 31.1358 0.0371683 31.7146C0.201429 32.5985 0.467375 32.9818 2.2586 34.9138C3.17376 35.8994 4.16715 36.9397 4.4722 37.2134C5.84104 38.4649 7.6792 39.3879 9.68943 39.8181C10.8314 40.0606 12.8808 40.0606 14.0228 39.8181C18.3248 38.8952 21.6179 35.7194 22.6113 31.5582C23.104 29.501 23.018 27.4517 22.3688 25.4962C21.8134 23.8301 21.0312 22.5551 19.6233 21.0299L18.8333 20.1851L19.9205 17.6508C20.6245 16.016 21.0391 14.9522 21.086 14.655C21.305 13.3253 20.5541 11.933 19.2869 11.3072C18.8176 11.0725 18.7238 11.0569 17.9572 11.0569C17.222 11.0569 17.089 11.0804 16.6744 11.2759C15.681 11.7374 15.3447 12.1598 14.6251 13.8337C14.3826 14.4125 14.1479 14.9209 14.1245 14.9522C14.0932 14.9913 13.1937 14.0762 12.1299 12.9185C9.85369 10.4546 9.45477 10.0557 9.01675 9.82886C8.32842 9.48469 7.468 9.36736 6.74056 9.53944ZM8.49268 10.8301C8.71169 10.9474 9.16536 11.362 9.59557 11.8313C10.0023 12.2693 12.2472 14.7019 14.5938 17.2362C19.5451 22.5786 19.6546 22.7038 20.1082 23.3843C21.3206 25.1911 21.8525 27.0919 21.7665 29.3602C21.6726 31.9336 20.7262 34.1316 18.935 35.9385C17.175 37.7062 14.9771 38.7074 12.4036 38.903C10.0805 39.0829 7.32721 38.1755 5.48123 36.619C4.60518 35.8837 1.5468 32.5516 1.32779 32.0979C0.960156 31.3235 1.11659 30.3692 1.71888 29.767C2.1882 29.2976 2.42286 29.2038 3.17376 29.2038C4.08893 29.2038 4.27666 29.3289 5.70025 30.8777C6.34165 31.5738 6.94393 32.1918 7.04562 32.2622C7.42107 32.5046 7.94514 32.137 7.83564 31.699C7.80435 31.5816 7.05344 30.7056 6.16174 29.7357C3.11119 26.427 3.18159 26.513 3.17376 25.7308C3.17376 25.1364 3.30674 24.7531 3.67437 24.3385C4.26101 23.6737 5.10578 23.4547 5.94273 23.7362C6.38858 23.8927 6.52937 24.0257 8.99328 26.6851C10.1118 27.8897 10.9409 28.7188 11.0583 28.7501C11.3399 28.8205 11.6527 28.5467 11.684 28.2182C11.6997 27.9679 11.5823 27.8193 9.84587 25.9499C5.1136 20.8578 5.3639 21.1785 5.3639 20.2477C5.3639 19.4107 5.74718 18.7771 6.47462 18.4173C7.23335 18.0341 8.17198 18.1827 8.8212 18.785C9.01675 18.9649 10.4403 20.4745 11.9734 22.1406C14.5547 24.9486 14.7815 25.1755 15.0162 25.1755C15.595 25.1755 15.7358 24.581 15.2821 24.0961C15.1335 23.9396 13.9055 22.6099 12.5601 21.1472C11.2147 19.6845 9.48606 17.815 8.72733 17.0016C7.96861 16.1803 7.00651 15.1478 6.58413 14.6941C6.16174 14.2404 5.74718 13.732 5.66114 13.5677C5.31697 12.9029 5.41084 11.9642 5.87233 11.362C6.09134 11.0725 6.6467 10.7206 7.02998 10.6189C7.42889 10.5172 8.09376 10.611 8.49268 10.8301ZM18.8646 12.3319C19.2791 12.5431 19.7015 13.0202 19.8736 13.4661C20.1395 14.1778 20.0457 14.5611 19.0132 16.9625C18.5048 18.1436 18.0667 19.1448 18.0354 19.1761C17.9729 19.2543 14.9849 16.0629 14.9849 15.9143C14.9849 15.7501 16.08 13.2549 16.2911 12.9498C16.8152 12.1911 18.0198 11.9017 18.8646 12.3319Z" fill="black"/>
</svg>
