<svg width="325" height="162" viewBox="0 0 325 162" fill="none" xmlns="http://www.w3.org/2000/svg">
<path d="M83.4213 161.491C83.0261 161.116 83.5801 160.021 84.2493 159.855C85.0655 159.652 85.8458 160.435 85.552 161.162C85.3504 161.661 83.845 161.893 83.4213 161.491ZM81.1095 158.406C80.9772 157.905 80.4947 157.361 80.0374 157.196C79.2856 156.924 79.2096 156.687 79.2448 154.721C79.2662 153.526 79.1555 151.831 78.9989 150.955C78.7844 149.756 78.857 149.1 79.2928 148.3C80.0392 146.93 80.0463 144.667 79.306 144.084C78.5954 143.524 78.7252 141.868 79.5883 140.481C79.9423 139.912 80.2336 139.214 80.2356 138.929C80.2374 138.645 80.4829 137.969 80.7807 137.426C81.323 136.439 82.2313 133.617 82.741 131.335C83.0592 129.911 82.9568 125.558 82.5311 122.408C82.2453 120.294 82.1589 120.146 80.5978 119.106C78.6134 117.783 75.8772 114.205 75.8772 112.933C75.8772 112.725 75.2645 112.067 74.5155 111.47C73.2895 110.492 73.1573 110.226 73.1886 108.797C73.2091 107.865 73.464 106.958 73.8068 106.599C74.1276 106.262 74.4977 105.348 74.6292 104.567C74.7958 103.578 75.1728 102.934 75.8715 102.443C76.9717 101.671 77.0062 100.794 76.0188 98.699C75.5012 97.6007 75.4982 97.5997 74.231 98.1024C72.9969 98.592 72.9325 98.5777 71.9136 97.5881C71.3373 97.0283 70.7677 96.6633 70.648 96.7769C70.5283 96.8906 70.4303 96.7393 70.4303 96.4407C70.4303 96.142 69.703 95.4609 68.8141 94.9269C67.9252 94.393 67.0024 93.6094 66.7635 93.1856C66.1976 92.1817 63.5554 91.015 61.9755 91.0713C60.6489 91.1187 54.4528 88.5026 54.4528 87.8951C54.4528 87.7109 54.2486 87.5569 53.9989 87.5528C53.4779 87.5444 51.767 85.3476 51.3928 84.2066C51.2543 83.7842 50.5895 82.8119 49.9155 82.046C49.2414 81.28 48.419 80.0742 48.0879 79.3663C47.4048 77.9059 45.951 76.7213 45.1846 77.0005C44.7414 77.1619 44.7406 77.3788 45.1787 78.5575C45.6633 79.8615 46.7266 81.6743 47.2238 82.0441C47.6327 82.3482 47.9772 83.7679 47.6422 83.7679C46.8767 83.7679 44.288 80.1595 43.7284 78.3125C43.4023 77.2362 42.7101 75.9289 42.19 75.4075C41.67 74.886 41.381 74.4594 41.5478 74.4594C41.8224 74.4594 40.8447 73.5184 38.9869 71.9948C38.0353 71.2143 36.8699 69.8087 36.7037 69.241C36.3956 68.1883 36.0191 63.1938 36.1852 62.3631C36.2833 61.8727 36.2054 60.9275 36.012 60.2627C35.7514 59.3666 35.7944 58.7514 36.1782 57.8848C36.9087 56.2354 36.5999 55.533 34.3248 53.6682C32.3427 52.0435 31.8632 51.326 30.6551 48.1764C30.3106 47.2784 29.805 46.3674 29.5314 46.1519C29.2579 45.9363 29.0341 45.6205 29.0341 45.4501C29.0341 45.2796 28.6039 44.5229 28.078 43.7685C27.3511 42.7256 26.8841 42.3968 26.1298 42.3968C25.5841 42.3968 24.7222 42.0866 24.2144 41.7073C23.7066 41.3281 22.9736 41.0178 22.5855 41.0178C21.6034 41.0178 19.7466 40.4268 17.5243 39.407C16.4865 38.9307 15.4903 38.6273 15.3104 38.7328C15.1306 38.8383 14.9687 39.4193 14.9506 40.0237C14.9208 41.018 14.4184 41.688 13.6921 41.702C13.2603 41.7104 13.3727 40.8642 13.9893 39.4631C14.6944 37.8607 14.2091 37.1655 13.1122 38.2069C11.9485 39.3118 11.2921 40.7713 11.4983 41.7954C11.6395 42.4969 11.5165 42.7948 11.0101 42.9781C10.6378 43.1129 9.46892 43.8906 8.41263 44.7062C7.35633 45.5218 6.26696 46.1892 5.9918 46.1892C5.71663 46.1892 5.4227 46.3831 5.3386 46.6201C5.25451 46.8572 5.06568 46.447 4.91898 45.7087C4.77227 44.9704 4.41894 44.1448 4.1338 43.8741C3.84865 43.6034 3.61535 43.0245 3.61535 42.5877C3.61535 40.7047 3.14102 39.6019 2.11431 39.0978C1.51825 38.8052 1.07348 38.3046 1.07348 37.9265C1.07348 37.5633 0.916035 37.1738 0.7236 37.0609C0.309138 36.8177 1.59394 35.504 2.25364 35.4965C2.50328 35.4937 3.36117 35.2763 4.16004 35.0136C5.43145 34.5954 5.6261 34.3891 5.72126 33.3585C5.81598 32.3326 5.67508 32.1018 4.62671 31.5658C3.96491 31.2274 3.01725 31.0057 2.5208 31.073C1.29948 31.2387 -0.119192 30.0024 0.0429339 28.9136C0.144437 28.2319 0.346088 28.1077 1.20863 28.1952C1.78226 28.2534 2.65995 28.5551 3.15906 28.8656C4.00245 29.3902 4.09829 29.3888 4.51644 28.8459C4.76389 28.5246 5.1526 28.2617 5.38023 28.2617C5.60786 28.2617 5.7941 27.8739 5.7941 27.3998C5.7941 26.7103 5.61254 26.538 4.88629 26.538C4.38699 26.538 3.97848 26.3899 3.97848 26.2089C3.97848 25.6736 2.14579 24.094 1.77628 24.3108C1.58946 24.4204 1.43437 24.307 1.43165 24.0588C1.42892 23.8106 1.33301 23.2761 1.21852 22.871C1.04551 22.2588 1.30277 21.9968 2.74159 21.3195C3.69377 20.8714 4.71796 20.1017 5.01757 19.6091C5.31718 19.1166 6.27269 18.3558 7.14094 17.9185C8.51156 17.2281 8.8346 17.1818 9.59265 17.567C10.0728 17.811 10.7449 17.9089 11.0861 17.7846C11.4273 17.6603 12.0804 17.7913 12.5375 18.0756C12.9946 18.3599 14.0746 18.6869 14.9374 18.8022C15.8003 18.9176 17.0782 19.2046 17.7772 19.4401C18.4762 19.6755 19.6828 19.8132 20.4584 19.7461C21.3734 19.6668 22.2024 19.8344 22.8188 20.2232C23.3413 20.5528 24.0139 20.8589 24.3135 20.9034C24.613 20.948 25.218 21.3807 25.6578 21.865C26.7121 23.0262 27.6375 22.9769 28.7513 21.7005C29.7581 20.5467 31.5903 19.8913 32.9218 20.2086C33.6956 20.393 33.7664 20.3191 33.6086 19.493C33.489 18.8665 33.6123 18.5065 33.9935 18.3676C34.6391 18.1323 35.1329 18.715 35.4455 20.0809C35.7111 21.2412 36.0968 21.507 36.8976 21.0815C37.4961 20.7635 39.1571 21.2049 40.8357 22.1282C41.2351 22.3479 42.1338 22.6175 42.8328 22.7274C43.8025 22.8799 44.1319 23.1144 44.2224 23.7169C44.2956 24.2043 44.7126 24.6323 45.3118 24.8351C45.8457 25.0158 46.7163 25.3953 47.2464 25.6784C48.706 26.458 49.2286 26.3187 50.5057 24.81C51.583 23.5371 51.78 23.4445 52.9739 23.6483C53.6874 23.7701 54.4677 24.0175 54.7078 24.1981C54.9478 24.3786 55.4523 24.4335 55.8288 24.3201C56.2484 24.1937 57.0293 24.4462 57.8461 24.9724C59.1383 25.805 59.1919 25.8111 59.6118 25.1726C59.9246 24.6972 60.3126 24.565 61.0081 24.6971C62.2525 24.9334 63.531 23.4931 63.531 21.8548C63.531 20.9541 63.2619 20.5173 62.26 19.7918C60.9457 18.84 60.556 17.4338 61.3876 16.6442C62.0932 15.9744 63.7821 17.1803 63.818 18.3797C63.8349 18.9425 63.9986 19.4958 64.1819 19.6091C64.3651 19.7224 64.7115 20.3873 64.9516 21.0866C65.2461 21.9447 65.637 22.393 66.1538 22.4656C66.6501 22.5354 67.0626 22.9784 67.3261 23.7248C67.9706 25.5505 68.8493 25.791 70.1052 24.4854C70.6835 23.8844 71.1566 23.1177 71.1566 22.7818C71.1566 21.9479 71.4306 21.7538 72.3021 21.9701C72.8952 22.1174 73.0017 22.3471 72.8376 23.1259C72.725 23.6605 72.7886 24.1893 72.979 24.301C73.3511 24.5193 73.2735 25.6773 72.8605 26.0694C72.7222 26.2007 72.6091 26.6701 72.6091 27.1125C72.6091 27.763 72.4152 27.917 71.5965 27.917C71.0396 27.917 69.9366 28.2325 69.1454 28.6181C68.3542 29.0038 67.3787 29.2429 66.9776 29.1496C66.0484 28.9334 65.0327 29.4869 65.5312 29.9377C65.7292 30.1168 66.2045 30.3172 66.5874 30.383C66.9703 30.4488 67.3462 30.6813 67.4228 30.8997C67.5769 31.339 65.5909 32.3988 64.6135 32.3988C62.8358 32.3988 61.1972 34.9549 60.8044 38.3405C60.6783 39.4278 60.4232 40.4066 60.2374 40.5156C59.8078 40.7676 59.8116 41.7308 60.2448 42.3809C60.5282 42.8062 60.7161 42.8123 61.4857 42.4213C62.8544 41.7258 63.531 42.1513 63.531 43.7076C63.531 45.2545 63.8088 45.6513 64.5069 45.1012C65.2764 44.4949 66.6918 45.278 67.2922 46.6423C67.7398 47.6594 68.0137 47.8356 69.4348 48.0205C71.9455 48.3472 73.0663 48.9377 72.7911 49.7888C72.6649 50.1792 72.4909 50.7314 72.4044 51.0158C72.3118 51.3206 72.8054 51.9315 73.6066 52.5036L74.9659 53.4744L75.7847 52.5706C76.3687 51.926 76.6035 51.2275 76.6035 50.1347C76.6035 49.292 76.618 48.5637 76.6356 48.5163C77.1097 47.2458 77.1565 45.1774 76.7409 43.8664C76.3486 42.6288 76.3227 41.7912 76.6219 40.0138C77.2706 36.1599 77.2772 36.1427 77.9741 36.4723C78.3187 36.6352 79.5403 36.96 80.6886 37.1941C81.9733 37.4559 82.7766 37.7981 82.7766 38.0834C82.7766 38.3384 82.9506 38.6021 83.1632 38.6694C83.3758 38.7367 83.642 39.4447 83.7547 40.2428C83.9338 41.5105 84.161 41.806 85.552 42.5799C87.3026 43.5539 87.8603 43.4681 87.8603 42.2245C87.8603 41.101 88.4596 40.835 88.7253 41.8405C88.8443 42.2903 89.597 43.6827 90.3981 44.9347C91.1993 46.1867 91.8547 47.3025 91.8547 47.4142C91.8547 47.7348 92.6935 48.3828 93.8649 48.967C94.8189 49.4429 94.9393 49.6793 94.9234 51.0471C94.8983 53.2087 93.4113 54.8081 91.4266 54.8081C90.6581 54.8081 89.7293 54.6303 89.3627 54.413C87.9824 53.5945 84.9553 55.1994 84.9553 56.7497C84.9553 57.2641 85.1088 57.5169 85.3391 57.3817C85.5502 57.2579 86.0881 57.2436 86.5345 57.3499C87.1214 57.4898 87.3419 57.7928 87.3309 58.4439C87.3183 59.1852 87.5646 59.4267 88.7228 59.8086C90.7928 60.4913 90.9774 60.797 90.059 62.0215C89.544 62.7082 88.9519 63.0823 88.3803 63.0823C87.3578 63.0823 87.289 62.8285 88.0367 61.815C88.5167 61.1644 88.5136 61.061 88.0091 60.8772C87.036 60.5226 84.3115 62.2971 81.4512 65.1483C80.5266 66.07 79.6028 66.7665 79.0268 66.9764C78.6697 67.1065 78.4095 67.5932 78.3959 68.1567C78.3301 70.8798 78.143 71.3216 76.4286 72.8029C74.0797 74.8326 73.5879 75.838 73.8606 78.0541C74.0055 79.2324 73.9119 80.2342 73.5887 80.9641C73.1006 82.0663 73.0878 82.071 72.2783 81.4487C71.5422 80.8828 71.5069 80.7242 71.9235 79.8561C72.2052 79.2691 72.2523 78.8004 72.0438 78.658C71.8554 78.5293 71.5213 78.1138 71.3014 77.7346C70.7277 76.7455 68.4173 76.6092 67.3931 77.5041C66.7433 78.0719 66.1941 78.1648 64.0058 78.0771C60.9507 77.9546 59.3769 78.5654 58.3793 80.2608C57.2368 82.2025 58.0048 86.7352 59.541 87.1166C59.938 87.2152 60.2628 87.4256 60.2628 87.5842C60.2628 87.9356 62.3496 88.5124 63.3504 88.4376C63.7493 88.4078 64.7607 87.9508 65.598 87.422C66.4353 86.8933 67.2931 86.562 67.5044 86.686C68.0649 87.0149 67.9737 88.0981 67.3438 88.5945C66.0432 89.6192 66.9947 91.0078 68.9974 91.0078C70.9156 91.0078 72.3603 92.3432 72.1379 93.9105C72.0472 94.5495 71.8748 95.223 71.7549 95.4073C71.3706 95.9977 72.8415 96.9545 73.7244 96.6885C74.1668 96.5552 75.133 96.6355 75.8716 96.8669C77.0002 97.2205 77.3941 97.1995 78.3399 96.7352C78.9588 96.4313 79.7553 95.7165 80.1098 95.1467C80.4643 94.5768 80.8816 94.1106 81.037 94.1106C81.4438 94.1106 81.1887 95.3308 80.6541 95.9425C80.3438 96.2974 80.3214 96.5341 80.5835 96.6879C81.1043 96.9934 82.5019 96.5409 82.9885 95.9091C83.3001 95.5045 83.7661 95.4521 85.1687 95.6637C86.1498 95.8117 87.612 95.901 88.418 95.8621C90.0829 95.7818 91.5288 96.6493 92.4019 98.2524C92.813 99.0071 93.4125 99.361 95.0273 99.802C97.4586 100.466 98.9364 101.633 99.8922 103.644C100.35 104.607 100.911 105.188 101.604 105.418C102.171 105.605 103.224 106.25 103.943 106.849C105.192 107.89 105.316 107.921 106.688 107.531C108.72 106.953 110.455 107.353 111.599 108.664C112.124 109.266 112.553 109.912 112.553 110.1C112.553 110.288 112.908 110.801 113.343 111.24C114.101 112.007 114.111 112.105 113.587 113.676C113.129 115.049 112.909 115.299 112.219 115.225C111.655 115.165 111.337 115.355 111.206 115.829C111.101 116.209 110.844 116.52 110.634 116.52C110.425 116.52 110.355 116.617 110.481 116.736C110.606 116.855 110.439 117.437 110.11 118.029C109.781 118.621 109.392 120.034 109.246 121.168C108.952 123.456 107.822 124.794 106.186 124.794C105.642 124.794 105.073 125.133 104.695 125.681C104.3 126.253 103.851 126.511 103.432 126.407C102.085 126.073 101.742 126.74 100.772 131.581C100.557 132.649 99.8831 133.758 99.4474 133.758C99.2437 133.758 98.7374 134.534 98.3224 135.482C97.9074 136.43 97.3512 137.205 97.0863 137.205C96.8214 137.205 96.1855 136.779 95.6731 136.257C94.8857 135.456 94.6862 135.389 94.3836 135.826C94.1868 136.111 94.1053 136.887 94.2025 137.55C94.3131 138.306 94.1436 139.208 93.749 139.964C93.2389 140.94 92.9118 141.17 92.0329 141.17C90.8831 141.17 90.3202 141.508 89.9592 142.414C89.8377 142.719 89.2155 143.068 88.5764 143.189C87.4247 143.408 87.4167 143.423 87.6631 144.983C87.9502 146.801 87.6177 147.347 85.7781 148.077C84.6433 148.527 84.5644 148.655 84.7801 149.695C84.9089 150.315 85.101 151.248 85.2069 151.767C85.3365 152.402 85.0736 153.302 84.4038 154.518C83.8562 155.513 83.2183 156.949 82.9862 157.71C82.4782 159.376 81.4652 159.752 81.1095 158.406ZM64.4393 64.4614C64.5068 64.4614 64.8333 63.6857 65.165 62.7376C65.4967 61.7895 65.8857 61.0138 66.0294 61.0138C66.5655 61.0138 67.1622 61.8673 67.1622 62.6342C67.1622 63.0703 67.3364 63.4271 67.5492 63.4271C68.2736 63.4271 69.341 62.7149 69.341 62.2316C69.341 61.9666 69.6678 61.6513 70.0672 61.5309C71.3618 61.1408 70.8409 60.3832 68.6309 59.4415C67.0612 58.7727 66.381 58.2716 66.15 57.6137C65.8934 56.8827 65.5916 56.7003 64.5906 56.6709C63.9079 56.6509 62.9306 56.5244 62.4186 56.3897C61.1664 56.0602 59.4625 57.2709 60.1908 57.9727C60.4508 58.2232 61.2679 58.4281 62.0065 58.4281C63.1102 58.4281 63.3695 58.5621 63.4622 59.1805C63.5243 59.5943 63.32 60.4011 63.0083 60.9733C62.6966 61.5456 62.4416 62.342 62.4416 62.7431C62.4416 63.8674 63.1481 64.8871 63.7701 64.6605C64.0707 64.551 64.3718 64.4614 64.4393 64.4614ZM56.4748 52.4398C56.342 51.5618 56.2004 50.4244 56.1601 49.9124C56.0479 48.4854 55.4488 48.0974 54.2206 48.6563C52.9579 49.2309 52.6863 50.1679 53.709 50.4218C54.4265 50.6 54.6562 51.311 54.5039 52.8832C54.4687 53.2467 54.8018 53.9098 55.2441 54.3567C55.9611 55.0813 56.0845 55.108 56.3823 54.6028C56.566 54.2912 56.6076 53.3178 56.4748 52.4398ZM45.1998 41.3247C47.8849 39.2215 48.0828 38.8015 46.5549 38.4486C46.0056 38.3217 45.2927 37.8947 44.9706 37.4997C44.0437 36.363 43.4392 37.0299 43.6947 38.9072C43.9273 40.6165 43.7423 41.1127 42.7421 41.4631C41.9134 41.7534 41.9185 42.7416 42.7487 42.7416C43.1019 42.7416 44.2049 42.104 45.1998 41.3247ZM39.3162 32.692C39.7525 32.474 40.232 32.1249 40.3817 31.9163C40.5694 31.6548 40.7622 31.6968 41.0021 32.0512C41.402 32.6422 41.9144 32.2956 42.6116 30.9626C42.8432 30.52 43.3962 30.1083 43.8405 30.0477C44.335 29.9803 44.6485 29.6957 44.6485 29.3143C44.6485 28.5107 44.0466 28.0541 42.4815 27.6705C41.448 27.4171 40.9274 27.5096 39.5765 28.1865C36.6254 29.6652 35.5365 31.1497 37.5114 31.002C38.8466 30.9021 38.9394 30.9946 38.3544 31.8422C37.5498 33.008 37.9595 33.37 39.3162 32.692ZM305.653 157.47C304.727 156.387 305.299 155.439 308.363 152.978C309.526 152.045 310.361 152.195 310.277 153.323C310.172 154.733 310.115 154.924 309.868 154.69C309.744 154.572 309.406 154.702 309.116 154.977C308.826 155.252 308.264 155.478 307.867 155.478C307.47 155.478 307.241 155.626 307.359 155.807C307.669 156.283 307.198 157.813 306.683 158.001C306.441 158.089 305.978 157.85 305.653 157.47ZM308.819 154.447C308.946 154.252 308.801 154.194 308.478 154.312C307.848 154.541 307.733 154.788 308.256 154.788C308.444 154.788 308.697 154.635 308.819 154.447ZM283.896 152.928C283.275 152.63 283.075 152.286 283.166 151.671C283.236 151.205 283.317 150.799 283.348 150.77C283.465 150.657 284.529 150.571 285.331 150.61C286.069 150.646 286.157 150.803 286.058 151.913C285.932 153.316 285.314 153.606 283.896 152.928ZM312.346 149.401C312.09 149.141 311.988 148.927 312.12 148.927C312.252 148.927 312.169 148.708 311.935 148.441C311.631 148.092 311.623 147.888 311.908 147.721C312.126 147.593 312.231 147.039 312.14 146.491C311.975 145.499 311.978 145.497 312.838 146.09C313.313 146.418 313.706 146.943 313.713 147.257C313.721 147.657 313.942 147.774 314.45 147.648C315.413 147.409 315.375 148.05 314.369 149.005C313.387 149.937 312.956 150.021 312.346 149.401ZM283.222 146.66C282.285 146.352 281.82 146.343 281.455 146.625C280.946 147.019 280.44 146.592 278.717 144.313C278.337 143.809 277.635 143.304 277.158 143.191C276.648 143.069 276.315 142.752 276.348 142.422C276.575 140.202 275.754 139.672 274.143 140.998C273.067 141.884 272.745 141.866 272.357 140.897C271.818 139.553 270.919 139.112 268.739 139.123C267.292 139.131 266.042 139.417 264.436 140.11C262.56 140.919 261.845 141.055 260.26 140.903C259.208 140.803 257.658 140.891 256.816 141.1C255.973 141.309 255.175 141.376 255.041 141.248C254.907 141.121 254.75 140.383 254.692 139.607C254.633 138.831 254.398 137.982 254.168 137.719C253.939 137.456 253.668 136.729 253.567 136.103C253.466 135.477 253.092 134.654 252.737 134.275C252.244 133.749 252.162 133.345 252.392 132.572C252.581 131.935 252.548 131.392 252.302 131.111C252.084 130.861 252.035 130.396 252.191 130.056C252.345 129.722 252.446 129.335 252.416 129.197C252.329 128.8 254.361 127.919 255.876 127.697C259.275 127.198 259.752 127.016 260.351 125.99C260.679 125.427 261.237 124.913 261.589 124.849C261.942 124.784 262.686 124.246 263.244 123.654C264.088 122.757 264.349 122.649 264.806 123.009C265.97 123.927 266.814 123.744 268.589 122.189C269.547 121.351 270.617 120.663 270.966 120.661C271.316 120.659 271.602 120.516 271.602 120.343C271.602 120.004 272.033 120.03 273.341 120.447C274.073 120.681 274.161 120.907 274.068 122.322C273.962 123.923 273.971 123.936 275.596 124.661C278.339 125.884 279.195 125.97 279.553 125.061C279.723 124.63 279.724 124.193 279.555 124.091C279.153 123.846 279.695 121.945 280.215 121.781C280.436 121.711 280.723 121.968 280.852 122.353C280.98 122.738 281.607 123.398 282.244 123.82C283.747 124.817 283.935 125.099 283.942 126.367C283.946 127.168 284.333 127.761 285.555 128.834C286.439 129.611 287.237 130.175 287.329 130.088C287.563 129.866 289.758 132.448 289.758 132.946C289.758 133.171 289.947 133.415 290.178 133.489C290.788 133.682 291.112 136.464 290.711 138.067C290.521 138.826 289.983 139.987 289.517 140.647C289.05 141.307 288.668 142.203 288.668 142.637C288.668 143.419 286.176 146.307 285.06 146.819C284.748 146.962 283.921 146.891 283.222 146.66ZM164.082 138.372C163.398 137.59 162.296 134.67 161.689 132.034C161.58 131.56 161.289 131.017 161.044 130.827C160.292 130.248 159.507 128.493 159.295 126.922C159.185 126.102 158.846 125.17 158.543 124.852C157.573 123.834 157.442 121.092 158.234 118.394C158.854 116.284 158.886 115.8 158.478 114.774C158.218 114.122 157.576 112.515 157.05 111.202C156.524 109.89 155.831 108.633 155.509 108.409C155.032 108.078 154.967 107.61 155.158 105.874L155.392 103.745L154.333 103.544C153.75 103.433 152.942 103.049 152.537 102.691C152.132 102.333 151.648 102.04 151.461 102.04C151.275 102.04 151.028 101.807 150.913 101.523C150.639 100.846 148.886 100.858 147.855 101.544C146.993 102.117 145.345 102.023 143.164 101.277C142.28 100.975 141.776 100.977 141.059 101.287C139.228 102.079 138.066 101.803 136.34 100.165C135.454 99.323 134.633 98.2758 134.517 97.8377C134.401 97.3995 133.747 96.6938 133.064 96.2694C131.255 95.1459 130.726 93.9657 131.092 91.8697C131.257 90.9216 131.402 89.2461 131.414 88.1464C131.439 85.8315 132.053 84.4925 133.978 82.5612C134.733 81.8028 135.462 80.8331 135.597 80.4065C135.731 79.9798 135.99 79.6308 136.171 79.6308C136.879 79.6308 138.786 77.2954 139.549 75.4937C140.414 73.4515 140.311 73.4931 143.355 73.9676C144.61 74.1631 145.202 74.065 146.298 73.4802C147.419 72.882 148.387 72.731 151.584 72.6556C155.286 72.5682 155.512 72.6027 155.784 73.2957C155.964 73.7547 155.878 74.3809 155.555 74.9727C154.769 76.4099 154.882 76.5279 157.041 76.5279C158.142 76.5279 159.326 76.6605 159.673 76.8226C160.02 76.9846 161.075 77.3515 162.017 77.6378C163.62 78.125 163.769 78.1172 164.343 77.5155C165.022 76.8032 165.626 76.7145 166.573 77.1885C168.32 78.0636 169.951 78.5855 171.404 78.7348C172.289 78.8257 173.464 79.0052 174.015 79.1338C174.565 79.2623 175.466 79.1903 176.017 78.9738C177.702 78.3113 179.244 74.7683 178.364 73.583C177.908 72.9691 175.277 72.3854 173.376 72.4763C171.604 72.5611 171.558 72.5384 171.438 71.5289C171.37 70.9601 171.163 70.3204 170.978 70.1074C170.326 69.3597 171.056 68.7433 173.747 67.7678C176.278 66.8504 176.593 66.8113 178.369 67.1941C181.808 67.9352 182.253 67.9884 183.176 67.7685C184.588 67.4321 184.302 66.3751 182.273 64.4284C181.274 63.4703 180.457 62.4042 180.457 62.0594C180.457 61.4373 179.783 61.0138 178.793 61.0138C178.461 61.0138 178.278 61.3883 178.278 62.0721C178.278 62.9723 178.156 63.1139 177.461 63.0201C176.929 62.9483 176.603 62.6326 176.525 62.1132C176.46 61.6749 176.173 61.2313 175.887 61.1272C175.101 60.8408 173.679 61.8873 173.395 62.9609C173.257 63.4848 172.828 64.1231 172.443 64.3793C172.024 64.6577 171.742 65.2483 171.742 65.8465C171.742 67.0891 170.498 68.2537 169.171 68.2537C168.139 68.2537 167.748 68.7771 167.748 70.1578C167.748 71.3712 167.212 71.4642 165.964 70.4671C165.225 69.8771 164.653 68.9459 164.28 67.7288C163.774 66.0771 163.545 65.806 162.082 65.1335C161.183 64.7205 160.192 64.0125 159.88 63.5601C159.162 62.5196 157.943 62.4566 157.943 63.4601C157.943 64.6122 159.25 66.0443 161.024 66.836C162.778 67.6187 162.972 67.9263 162.131 68.5893C161.838 68.8204 161.612 69.1109 161.629 69.2349C161.812 70.5499 160.675 70.7418 160.334 69.4535C160.208 68.9756 159.741 68.1761 159.296 67.6769C158.347 66.611 154.976 63.4271 154.796 63.4271C154.728 63.4271 154.063 63.7374 153.318 64.1166C152.572 64.4959 151.438 64.8061 150.798 64.8061C149.625 64.8061 148.502 65.7834 148.502 66.8037C148.502 67.2639 147.62 68.2898 147.244 68.266C147.137 68.2593 146.89 68.2537 146.694 68.2537C146.498 68.2537 145.986 68.9131 145.556 69.719C144.737 71.252 144.195 71.7713 143.709 71.4863C143.55 71.393 142.957 71.5762 142.392 71.8932C141.44 72.427 141.28 72.4282 140.223 71.9096C138.833 71.2271 138.371 70.468 138.399 68.9176C138.411 68.2681 138.346 67.3392 138.254 66.8535C138.162 66.3678 138.227 65.6108 138.398 65.1712C138.679 64.4489 138.857 64.3953 140.247 64.6135C144.267 65.245 144.077 65.2951 144.356 63.5297C144.646 61.6963 143.954 60.2227 142.718 60.0417C142.304 59.9811 141.966 59.7334 141.966 59.4912C141.966 58.8105 143.249 57.5662 143.951 57.5662C145.29 57.5662 147.072 56.3786 150.623 53.121C154.124 49.909 154.312 49.664 154.312 48.3183C154.312 46.3071 155.243 46.7607 155.545 48.9188L155.776 50.5723L158.16 50.7837C160.012 50.9479 160.741 50.8724 161.427 50.446C161.991 50.095 162.696 49.9703 163.38 50.1003C164.602 50.3323 164.852 50.0846 165.409 48.0861C165.785 46.7382 165.831 46.7063 167.406 46.7063C168.984 46.7063 169.021 46.6801 169.139 45.5011C169.294 43.9547 169.691 43.5258 171.426 43.0321C173.482 42.4476 173.927 41.8021 172.821 41.0104C171.591 40.1297 170.339 39.9708 168.743 40.493C167.077 41.0378 166.932 40.8702 166.78 38.2219C166.685 36.5679 166.844 35.9263 167.757 34.2788C169.065 31.9176 169.314 30.2427 168.384 30.0599C167.411 29.8689 165.618 31.982 166.11 32.7386C166.324 33.0669 163.553 35.8464 163.012 35.8464C162.648 35.8464 161.928 37.9063 162.048 38.6068C162.096 38.8925 162.418 39.5088 162.763 39.9764C163.441 40.8946 163.603 42.5759 163.047 42.9026C162.857 43.0135 162.166 44.0311 161.51 45.1639C160.854 46.2966 160.136 47.2235 159.913 47.2235C159.313 47.2235 158.307 46.0521 158.307 45.3533C158.307 44.5118 157.158 42.7416 156.612 42.7416C156.366 42.7416 156.033 42.9355 155.873 43.1725C155.714 43.4096 155.305 43.8103 154.965 44.0631C154.428 44.4622 154.201 44.3812 153.24 43.4479C152.631 42.8567 152.133 42.0216 152.133 41.592C152.133 41.1624 151.944 40.631 151.712 40.411C151.48 40.191 151.321 39.2051 151.358 38.2193C151.43 36.2906 151.654 36.004 154.04 34.7973C155.393 34.113 156.849 32.3257 157.398 30.6751C157.555 30.201 157.988 29.6104 158.359 29.3627C158.729 29.1149 159.033 28.6187 159.033 28.2601C159.033 27.9015 159.816 26.7079 160.773 25.6078C161.731 24.5076 162.799 23.0278 163.148 22.3193C163.84 20.9147 164.94 20.1617 165.828 20.485C166.138 20.5982 167.228 20.2498 168.25 19.7108C169.647 18.9741 170.626 18.7222 172.196 18.6961C174.56 18.6569 174.9 19.1478 173.494 20.5686L172.705 21.3666H174.013C174.975 21.3666 175.509 21.5941 176.035 22.2285C176.537 22.8346 177.102 23.0904 177.939 23.0904C178.594 23.0904 179.439 23.3566 179.818 23.6821C180.197 24.0075 181.086 24.5893 181.794 24.9749C182.665 25.449 183.232 26.0971 183.545 26.9761C183.967 28.1621 183.944 28.3186 183.28 28.76C182.88 29.0262 182.31 29.1555 182.013 29.0474C181.716 28.9393 181.344 29.0491 181.186 29.2914C180.787 29.905 178.828 29.0647 178.245 28.0294C177.869 27.3633 176.797 26.8945 175.555 26.8539C175.355 26.8474 175.1 27.2002 174.988 27.6381C174.832 28.2485 175.043 28.6182 175.896 29.2238C177.119 30.0924 177.488 30.7397 177.527 32.0802C177.554 33.0401 178.849 34.3544 179.731 34.3177C180.03 34.3052 180.329 33.9376 180.394 33.5007C180.466 33.0197 180.89 32.5703 181.469 32.3613C181.995 32.1714 182.84 31.5771 183.348 31.0405C184.179 30.1613 185.277 29.8213 187.81 29.6583C188.339 29.6243 188.074 28.7054 187.357 28.0894C186.484 27.3396 186.425 26.4372 187.201 25.7007C188.043 24.9011 188.446 25.0381 188.446 26.1242C188.446 28.0803 190.398 28.5943 191.41 26.9048C192.232 25.5329 196.798 23.4494 196.798 24.4462C196.798 25.2021 198.327 25.2109 199.169 24.4598C199.778 23.9161 200.282 23.7566 200.914 23.9071C201.602 24.0711 202.057 23.8707 202.936 23.0174C204.025 21.9599 204.13 21.9312 205.578 22.2981C206.407 22.5083 207.287 22.6066 207.534 22.5167C208.109 22.3073 208.407 21.2388 208.413 19.3616C208.416 18.5432 208.582 17.583 208.782 17.2277C209.032 16.7845 209.022 16.5092 208.752 16.3505C208.517 16.2127 208.81 15.8576 209.477 15.4727C210.093 15.1172 210.597 14.6689 210.597 14.4765C210.597 13.924 212.636 14.0693 213.151 14.6584C213.503 15.0612 213.514 15.2869 213.196 15.5892C212.588 16.1657 212.683 18.9511 213.351 20.1599C214.207 21.7093 214.273 24.528 213.498 26.451C212.898 27.9394 212.74 28.0801 211.774 27.9884C210.135 27.8328 209.599 28.6784 210.367 30.2075C210.837 31.1432 211.128 31.3723 211.606 31.1825C211.949 31.0461 212.721 30.8326 213.32 30.7081C214.647 30.4323 216.77 27.6407 216.77 26.1705C216.77 24.9536 217.471 23.4351 218.034 23.4351C218.305 23.4351 218.479 24.259 218.522 25.747C218.559 27.0185 218.742 28.2041 218.929 28.3815C219.395 28.8236 221.853 27.6846 221.853 27.0268C221.853 26.7446 221.608 26.1578 221.308 25.7227C221.007 25.2877 220.697 24.2954 220.618 23.5177C220.434 21.6994 220.193 21.3621 219.141 21.4448C218.014 21.5333 216.475 20.7356 216.203 19.9225C215.594 18.0994 215.457 14.7898 215.955 13.9436C216.278 13.396 216.366 13.4326 216.815 14.3018C217.089 14.8341 217.559 15.3734 217.859 15.5002C221.063 16.8557 221.308 17.0922 221.32 18.835C221.335 21.04 221.619 21.4533 222.774 20.9535C223.482 20.6475 223.67 20.3071 223.674 19.3289C223.677 18.6482 223.768 17.7783 223.876 17.3957C224.014 16.9078 223.641 16.2427 222.628 15.169C221.484 13.9571 221.255 13.5092 221.531 13.0204C221.722 12.6807 221.996 12.3913 222.139 12.3772C223.867 12.2066 224.886 11.5777 224.93 10.6538C224.936 10.5451 225.348 9.88567 225.848 9.1884C226.426 8.38135 226.95 7.98996 227.289 8.11141C227.583 8.21634 227.723 8.20763 227.602 8.09206C227.48 7.97648 228.057 7.16073 228.884 6.27928C231.992 2.9659 231.736 3.11342 234.061 3.29582C235.916 3.44141 236.293 3.60184 237.181 4.62496C237.91 5.46445 238.397 5.73746 238.93 5.60514C240.076 5.32074 240.724 4.21463 240.371 3.14644C240.205 2.64376 239.971 1.80584 239.851 1.28439C239.634 0.339888 239.64 0.336304 241.63 0.336304C243.476 0.336304 243.645 0.403807 243.863 1.22973C244.066 1.99707 244.234 2.08888 245.05 1.88022C246.837 1.42382 248.425 1.56439 248.807 2.21271C249.007 2.5508 249.489 3.13097 249.88 3.50199C250.538 4.12669 250.549 4.23761 250.021 5.00237C249.707 5.45657 249.451 6.13284 249.451 6.5052C249.451 7.29976 248.946 7.78833 246.934 8.93838C246.122 9.40314 245.457 9.97384 245.457 10.2066C245.457 10.4394 245.22 10.8547 244.93 11.1295C244.498 11.5395 244.487 11.7372 244.867 12.2306C245.301 12.7946 245.419 12.7787 246.76 11.9748C247.547 11.5033 248.409 10.8681 248.675 10.5632C249.113 10.0623 249.286 10.0591 250.473 10.5297C251.195 10.8162 251.873 11.1634 251.98 11.3013C252.087 11.4392 252.706 11.9664 253.355 12.4728C254.269 13.1851 254.803 13.3541 255.715 13.2193C256.364 13.1234 257.904 13.2718 259.137 13.5491C261.329 14.0421 261.407 14.035 262.658 13.2281C264.022 12.348 264.702 12.1882 264.702 12.7476C264.702 12.9372 264.928 13.0924 265.205 13.0924C266.029 13.0924 266.83 14.6149 266.95 16.4101L267.062 18.0914L269.095 17.9802C270.241 17.9175 271.998 18.1094 273.125 18.4204C274.979 18.9322 276.532 18.865 276.157 18.2891C276.069 18.1532 276.221 17.6305 276.496 17.1277C276.771 16.6248 277.048 15.8761 277.113 15.4638C277.177 15.0515 277.51 14.5476 277.852 14.3439C278.35 14.0479 278.689 14.1691 279.547 14.9488C280.626 15.9305 283.02 16.4392 283.45 15.7782C283.74 15.3326 285.759 15.8197 286.56 16.5286C286.932 16.8576 287.305 17.4608 287.387 17.869C287.609 18.9604 287.828 19.1929 289.007 19.5831C289.861 19.8655 290.348 19.8034 291.445 19.2723C293.589 18.2343 294.594 18.492 294.898 20.1578C295.055 21.0187 296.413 21.7272 298.248 21.9048C299.023 21.9799 300.217 22.3549 300.901 22.7382C301.586 23.1215 302.35 23.4351 302.599 23.4351C302.848 23.4351 303.606 23.823 304.283 24.297C305.834 25.3838 307.551 25.4665 307.551 24.4544C307.551 24.0668 307.949 23.3418 308.436 22.843L309.322 21.9363L311.193 22.8581C312.223 23.3651 313.351 23.7799 313.701 23.7799C314.051 23.7799 314.649 24.106 315.029 24.5047C315.706 25.215 317.718 26.3695 317.718 26.0476C317.718 25.9578 318.189 26.0399 318.763 26.2302C319.577 26.4994 319.855 26.8462 320.017 27.7944C320.131 28.4645 320.402 29.2156 320.619 29.4636C321.034 29.938 322.439 29.7775 322.439 29.2558C322.439 28.75 323.8 28.9138 324.41 29.493C325.249 30.2897 325.112 31.0747 323.915 32.3185L322.85 33.4261L320.115 32.0506C318.611 31.294 317.134 30.6751 316.833 30.6751C316.531 30.6751 316.041 31.1217 315.744 31.6675C315.447 32.2134 314.933 32.7584 314.603 32.8787C314.108 33.0591 314.029 33.4865 314.152 35.3245L314.302 37.5516L312.56 38.1462C311.603 38.4732 310.819 38.8484 310.819 38.98C310.819 39.1116 310.419 39.3146 309.93 39.4311C309.441 39.5476 308.826 40.0687 308.563 40.589C308.142 41.4206 307.879 41.5349 306.388 41.5349C304.919 41.5349 304.545 41.6911 303.594 42.7027C302.621 43.7368 302.344 43.8472 301.177 43.6674C299.45 43.4012 298.47 43.9769 298.675 45.1377C299.393 49.208 298.898 51.1913 296.91 52.2132C296.272 52.5414 295.504 53.2984 295.205 53.8953C294.589 55.1216 293.71 55.3255 293.499 54.291C293.171 52.6789 293.325 50.2964 293.795 49.7475C294.131 49.3538 294.147 49.2452 293.843 49.4186C293.593 49.561 293.389 49.5132 293.389 49.3124C293.389 48.909 294.139 48.0173 295.659 46.6134C296.208 46.106 296.657 45.4605 296.657 45.1789C296.657 44.8972 297.216 44.1173 297.899 43.4457C298.582 42.774 299.195 41.9142 299.261 41.5349C299.361 40.9589 299.201 40.8596 298.291 40.9317C297.692 40.9791 296.847 40.8433 296.414 40.6298C295.773 40.3138 295.435 40.371 294.599 40.9373C293.322 41.8009 292.307 42.8542 291.777 43.8644C291.327 44.7218 289.89 44.9724 289.473 44.2662C288.962 43.3983 287.472 43.1246 286.421 43.7053C285.574 44.173 285.248 44.1832 283.966 43.7816C282.866 43.437 282.279 43.4143 281.674 43.6927C281.227 43.8986 280.449 44.1509 279.944 44.2533C278.667 44.5128 275.215 48.8806 274.869 50.6729C274.592 52.1147 274.852 52.564 276.098 52.7887C276.548 52.87 276.969 53.4734 277.334 54.5596C277.813 55.9858 277.822 56.5352 277.402 58.6483C277.135 59.9909 276.723 61.2739 276.485 61.4994C276.248 61.7249 275.801 62.3673 275.492 62.9268C274.78 64.2169 272.005 66.8747 271.371 66.8747C271.106 66.8747 270.233 67.1243 269.43 67.4294C268.181 67.9037 267.805 68.3125 266.831 70.249C265.806 72.2886 265.736 72.6272 266.126 73.6522C266.507 74.6525 266.471 74.8803 265.831 75.5325L265.103 76.2745L264.869 75.3865C264.739 74.8982 264.741 74.3334 264.873 74.1316C265.135 73.7284 264.258 72.7356 263.639 72.7356C263.248 72.7356 263.146 72.4177 263.155 71.2374C263.16 70.7337 262.962 70.6389 262.207 70.7821C259.912 71.2173 259.803 71.2012 259.684 70.4085C259.615 69.9446 259.315 69.6328 258.938 69.6328C258.24 69.6328 255.987 71.6757 255.987 72.3089C255.987 72.8494 257.181 73.4251 258.302 73.4251C259.695 73.4251 259.779 74.0148 258.554 75.1785C257.502 76.1767 257.451 76.3496 257.621 78.3223C257.748 79.8046 258.003 80.5771 258.501 80.987C259.182 81.5472 259.183 81.6047 258.556 82.9247C257.563 85.0151 254.751 87.7875 253.358 88.05C252.707 88.1726 251.524 88.565 250.729 88.922C249.934 89.2789 249.123 89.4769 248.927 89.3619C248.528 89.1278 246.34 89.2066 245.366 89.4903C244.314 89.7964 244.63 93.2262 245.792 94.1106C246.42 94.5892 247.266 96.249 247.338 97.1442C247.442 98.4345 246.438 99.8975 245.257 100.179C244.498 100.36 244.028 100.108 242.538 98.7193C241.548 97.7963 240.737 96.8368 240.736 96.5872C240.736 96.2963 240.38 96.1725 239.746 96.2425C238.674 96.3606 237.642 97.7829 238.176 98.4066C238.344 98.6037 238.69 99.4299 238.944 100.243C239.198 101.056 239.763 102.086 240.198 102.532C241.4 103.763 242.666 105.838 242.381 106.109C242.242 106.241 241.655 105.806 241.077 105.143C240.499 104.479 239.719 103.626 239.345 103.247C238.026 101.909 237.748 100.97 237.251 96.165C236.971 93.4602 236.254 92.2414 235.244 92.7543C234.505 93.13 233.837 92.9286 233.837 92.3301C233.837 92.1316 233.444 91.5259 232.963 90.9841C232.483 90.4423 232.025 89.8132 231.945 89.5862C231.866 89.3592 230.747 89.0517 229.46 88.9029C227.172 88.6386 227.095 88.656 226.086 89.6641C225.517 90.2315 224.421 91.074 223.65 91.5363C222.244 92.3792 221.441 93.3881 221.233 94.5733C221.172 94.9226 220.878 95.5389 220.58 95.9429C220.282 96.3468 220.038 96.8859 220.038 97.1408C220.038 97.8706 217.571 100.188 217.213 99.7947C217.042 99.6075 216.685 98.6011 216.419 97.5582C216.154 96.5153 215.552 95.1218 215.082 94.4615C214.612 93.8013 214.228 92.8316 214.228 92.3068C214.228 91.782 214.067 91.3526 213.872 91.3526C213.676 91.3526 213.412 90.9634 213.287 90.4877C213.148 89.9635 212.716 89.5413 212.19 89.416C211.706 89.3007 211.323 88.9532 211.323 88.6301C211.323 87.9889 208.57 85.6593 207.258 85.1894C206.797 85.0246 205.531 84.788 204.445 84.6636C201.773 84.3577 200.847 84.1273 199.263 83.3742C198.522 83.0219 197.49 82.7336 196.97 82.7336C195.474 82.7336 194.624 82.1121 193.887 80.4792C193.191 78.9377 192.8 78.7151 190.443 78.5161C189.175 78.409 189.148 78.8995 190.298 81.1607C190.677 81.9074 190.988 82.7995 190.988 83.1431C190.988 83.6074 191.268 83.7679 192.077 83.7679C192.989 83.7679 193.167 83.9047 193.167 84.6051C193.167 86.2973 195.302 87.2022 196.072 85.8364C196.515 85.0495 197.887 84.898 197.887 85.6359C197.887 85.9049 198.459 86.4605 199.158 86.8707C199.857 87.2809 200.425 87.7977 200.419 88.0193C200.402 88.7365 197.89 91.0189 196.324 91.7403C195.486 92.1264 194.555 92.561 194.256 92.706C193.956 92.8511 192.813 93.1601 191.714 93.3926C190.616 93.6251 189.376 93.9721 188.959 94.1637C188.542 94.3552 187.731 94.4605 187.156 94.3975C186.299 94.3035 186.067 94.0758 185.865 93.1283C185.729 92.4932 185.043 91.4072 184.341 90.715C183.638 90.0227 182.808 88.9134 182.495 88.2497C182.183 87.5861 181.056 85.4917 179.991 83.5955C178.353 80.6796 177.919 80.1479 177.173 80.1479C175.929 80.1479 175.848 81.148 176.978 82.5546C177.585 83.3103 177.915 84.1597 177.915 84.9636C177.915 85.6466 178.168 86.5718 178.477 87.0197C178.786 87.4675 179.115 88.23 179.207 88.714C179.3 89.1981 179.864 90.1019 180.461 90.7225C181.105 91.3917 181.547 92.2298 181.547 92.7817C181.547 93.5397 181.782 93.7863 182.817 94.1106C183.516 94.3296 184.102 94.6907 184.118 94.9131C184.134 95.1354 184.175 95.9378 184.209 96.6963C184.268 98.0346 184.305 98.0721 185.45 97.9671C186.099 97.9076 186.63 98.0185 186.63 98.2135C186.63 98.9667 187.971 99.2818 189.042 98.7804C189.613 98.5132 190.555 98.1836 191.135 98.048C192.171 97.8058 192.185 97.8219 191.946 98.9556C191.813 99.5903 191.566 100.195 191.398 100.299C191.231 100.403 190.865 100.906 190.587 101.415C190.026 102.44 187.129 105.657 184.159 108.552C181.533 111.11 181.102 112.163 181.716 114.517C181.979 115.524 182.579 117.33 183.05 118.531L183.907 120.714L182.454 121.887C181.655 122.532 180.716 123.062 180.366 123.065C180.017 123.068 179.731 123.225 179.731 123.415C179.731 123.605 179.503 123.76 179.225 123.76C178.494 123.76 178.264 124.595 178.515 126.339C178.728 127.814 178.69 127.893 177.418 128.605C176.694 129.011 176.188 129.477 176.294 129.64C176.4 129.803 175.836 131.164 175.041 132.666C173.024 136.474 169.653 138.849 166.975 138.349C166.45 138.25 165.909 138.341 165.773 138.55C165.417 139.097 164.645 139.016 164.082 138.372ZM196.064 72.7496C196.686 71.6463 196.103 68.3212 195.109 67.3032C194.64 66.8225 194.256 66.1508 194.256 65.8104C194.256 65.4701 194.093 65.0957 193.893 64.9785C192.983 64.4448 193.602 64.0395 195.002 64.2521L196.475 64.4757L196.364 62.8585C196.268 61.4517 196.104 61.1626 195.109 60.6366C194.058 60.0812 193.776 60.073 191.639 60.5358C189.75 60.9449 189.197 61.2255 188.698 62.028C187.891 63.3248 187.921 64.1791 188.809 65.1509C189.208 65.5882 189.535 66.2271 189.535 66.5707C189.535 66.9143 190.014 67.7134 190.6 68.3464C191.513 69.3337 191.636 69.6964 191.466 70.8972C191.298 72.0901 191.394 72.3803 192.117 72.861C193.331 73.6686 195.581 73.6051 196.064 72.7496ZM203.025 65.5819C203.796 64.3061 204.136 62.0334 203.641 61.4665C203.423 61.2175 202.773 61.0138 202.195 61.0138C201.4 61.0138 200.97 61.2859 200.425 62.1343C199.507 63.5635 199.52 63.9909 200.52 65.3858C201.516 66.7754 202.267 66.8342 203.025 65.5819ZM186.63 129.091C186.63 128.8 186.374 128.19 186.06 127.736C185.609 127.082 185.576 126.755 185.904 126.173C186.132 125.769 186.291 124.944 186.256 124.34C186.154 122.543 186.201 122.479 187.901 122.072C189.235 121.753 189.535 121.538 189.535 120.901C189.535 119.618 190.559 118.534 191.658 118.655C192.51 118.749 192.611 118.895 192.525 119.915C192.472 120.55 191.988 121.946 191.45 123.018C190.912 124.09 190.433 125.199 190.387 125.484C190.012 127.774 189.399 128.909 188.35 129.256C186.882 129.742 186.63 129.718 186.63 129.091ZM284.52 117.534C284.135 117.166 283.563 116.85 283.249 116.833C282.934 116.815 281.942 116.759 281.043 116.708C278.28 116.55 276.594 115.896 274.332 114.104C272.389 112.565 271.678 112.211 270.791 112.34C270.645 112.361 270.423 111.992 270.298 111.519C270.173 111.046 269.925 110.659 269.747 110.659C269.568 110.659 269.423 110.426 269.423 110.142C269.423 109.277 270.97 109.554 271.827 110.573C272.574 111.462 272.698 111.494 273.822 111.093C274.901 110.707 275.149 110.747 276.307 111.492C277.014 111.947 278.305 112.428 279.175 112.56C280.688 112.79 281.523 113.324 282.314 114.565C282.513 114.879 283.085 115.189 283.585 115.255C284.157 115.33 284.681 115.745 285.003 116.378C285.283 116.93 285.651 117.434 285.82 117.497C285.988 117.56 286.127 117.754 286.127 117.928C286.127 118.455 285.261 118.243 284.52 117.534ZM262.523 117.543C262.523 117.36 262.769 117.209 263.068 117.209C263.766 117.209 263.766 117.425 263.068 117.679C262.769 117.788 262.523 117.727 262.523 117.543ZM248.03 116.037C246.173 115.5 245.535 115.186 245.972 115.027C247.097 114.617 249.49 114.781 250.765 115.356C251.755 115.802 251.923 116.012 251.592 116.39C251.089 116.966 251.312 116.988 248.03 116.037ZM257.984 113.762C257.861 113.572 257.85 113.278 257.961 113.108C258.071 112.939 257.918 112.711 257.619 112.602C256.91 112.344 256.912 111.004 257.621 111.004C257.956 111.004 258.166 110.681 258.166 110.167C258.166 109.35 258.999 108.246 259.615 108.246C260.286 108.246 261.056 108.679 260.876 108.956C260.771 109.118 260.446 109.163 260.155 109.057C259.379 108.774 259.086 109.858 259.765 110.502C260.609 111.304 260.52 112.973 259.618 113.245C259.219 113.365 258.892 113.608 258.892 113.785C258.892 114.213 258.267 114.197 257.984 113.762ZM242.564 112.225C242.309 111.933 241.834 111.688 241.508 111.682C240.64 111.666 239.789 110.947 239.482 109.968C239.333 109.495 238.37 108.387 237.341 107.505C236.312 106.624 235.581 105.796 235.716 105.664C235.969 105.416 240.399 107.596 241.6 108.56C242.508 109.288 243.755 112.068 243.348 112.454C243.165 112.628 242.831 112.53 242.564 112.225ZM250.449 110.754C248.671 110.259 248.571 110.097 248.947 108.311C249.119 107.492 249.482 107.136 250.563 106.726C251.329 106.435 252.113 105.921 252.306 105.584C252.498 105.246 253.15 104.696 253.755 104.36C254.825 103.766 254.874 103.769 255.564 104.472C256.612 105.539 256.333 108.551 255.037 110.164C254.281 111.105 253.972 111.276 253.58 110.967C253.256 110.712 252.923 110.69 252.628 110.905C252.333 111.119 251.572 111.067 250.449 110.754ZM265.065 108.59C265.065 108.401 265.229 108.246 265.428 108.246C265.628 108.246 265.792 108.401 265.792 108.59C265.792 108.78 265.628 108.935 265.428 108.935C265.229 108.935 265.065 108.78 265.065 108.59ZM262.16 103.093C261.06 102.824 260.957 101.908 262.01 101.765C262.868 101.649 263.91 102.604 263.398 103.037C263.216 103.19 262.66 103.215 262.16 103.093ZM219.68 101.609C219.683 101.372 219.826 100.968 219.998 100.71C220.397 100.113 220.922 100.806 220.626 101.539C220.378 102.152 219.673 102.204 219.68 101.609ZM258.859 95.7482C258.549 94.9463 258.593 93.4241 258.932 93.2255C259.208 93.0636 259.272 93.1158 259.108 93.3678C258.966 93.5867 258.996 93.7659 259.176 93.7659C259.455 93.7659 260.345 95.2205 260.345 95.6783C260.345 95.8377 258.919 95.9048 258.859 95.7482ZM105.896 91.8964C105.775 91.5973 105.769 91.1238 105.882 90.8443C106.061 90.4011 106.159 90.4043 106.648 90.8689C107.148 91.3435 107.15 91.4585 106.663 91.921C106.176 92.3835 106.092 92.3808 105.896 91.8964ZM247.817 91.3526C247.94 91.1629 248.277 91.0078 248.565 91.0078C248.852 91.0078 249.088 91.1629 249.088 91.3526C249.088 91.5422 248.751 91.6973 248.34 91.6973C247.929 91.6973 247.693 91.5422 247.817 91.3526ZM86.2263 89.284C86.1028 89.0944 86.2566 88.9392 86.568 88.9392C86.8793 88.9392 87.1341 89.0944 87.1341 89.284C87.1341 89.4736 86.9803 89.6288 86.7924 89.6288C86.6045 89.6288 86.3497 89.4736 86.2263 89.284ZM80.5978 88.6527C80.5978 88.1404 82.3466 87.462 83.0244 87.7114C83.6539 87.943 83.6518 87.977 82.9795 88.4467C82.2174 88.9792 80.5978 89.1193 80.5978 88.6527ZM258.529 88.0773C258.529 87.7929 258.692 87.5602 258.892 87.5602C259.092 87.5602 259.255 87.7929 259.255 88.0773C259.255 88.3618 259.092 88.5945 258.892 88.5945C258.692 88.5945 258.529 88.3618 258.529 88.0773ZM76.2403 87.2127C76.2403 86.7977 75.8524 86.5564 74.9657 86.4198C74.2646 86.3117 73.4192 85.9653 73.0869 85.6498C72.6642 85.2485 72.1199 85.132 71.275 85.2622C70.6107 85.3646 70.0672 85.3029 70.0672 85.1252C70.0672 84.9475 70.1898 84.7903 70.3396 84.7758C70.4893 84.7612 70.9387 84.6684 71.3381 84.5693C73.2797 84.088 74.6967 84.0752 75.1832 84.5347C75.4651 84.8008 76.5535 85.3108 77.602 85.668C78.6506 86.0252 79.5085 86.4933 79.5085 86.7083C79.5085 86.9234 78.7731 87.259 77.8744 87.4543C76.4232 87.7696 76.2403 87.7425 76.2403 87.2127ZM273.541 76.6816C273.43 76.4075 273.04 76.1832 272.673 76.1832C271.857 76.1832 271.554 75.779 271.934 75.1957C272.192 74.7998 272.897 74.5579 274.003 74.4858C274.226 74.4712 275.238 73.6839 276.252 72.7362C277.312 71.7449 278.195 71.1656 278.33 71.3722C278.458 71.5698 278.366 71.9574 278.125 72.2336C277.883 72.5097 277.806 72.7356 277.954 72.7356C278.101 72.7356 277.957 73.118 277.635 73.5854C277.312 74.0527 277.046 74.7896 277.043 75.223C277.035 76.3942 276.651 76.744 275.123 76.973C274.104 77.1258 273.69 77.0496 273.541 76.6816ZM158.901 71.1842C158.787 70.8998 158.749 70.667 158.818 70.667C158.887 70.667 159.147 70.8998 159.396 71.1842C159.656 71.4823 159.692 71.7013 159.479 71.7013C159.276 71.7013 159.016 71.4686 158.901 71.1842ZM153.949 69.1156C153.949 68.8312 154.013 68.5985 154.092 68.5985C154.17 68.5985 154.329 68.8312 154.443 69.1156C154.558 69.4001 154.494 69.6328 154.301 69.6328C154.107 69.6328 153.949 69.4001 153.949 69.1156ZM278.758 67.3238C278.279 67.2058 278.171 66.9659 278.349 66.4157C278.482 66.0045 278.613 65.6411 278.639 65.6082C278.666 65.5754 279.246 65.6569 279.929 65.7895C281.193 66.0349 281.938 66.8747 280.891 66.8747C280.575 66.8747 280.317 67.0298 280.317 67.2195C280.317 67.5745 279.89 67.603 278.758 67.3238ZM280.267 62.8531C279.91 62.445 279.772 61.1422 279.772 58.19C279.772 52.3946 280.199 51.6062 280.857 56.1872C280.979 57.0405 281.318 58.0849 281.61 58.5082C282.085 59.1972 282.066 59.4103 281.427 60.5425C280.912 61.4531 280.81 61.9798 281.06 62.4238C281.523 63.2448 280.903 63.5805 280.267 62.8531ZM94.9827 58.4063C94.8629 58.1098 94.6188 57.953 94.4403 58.0577C94.2618 58.1624 93.9405 58.0477 93.7264 57.8027C93.4415 57.4768 93.5265 57.0615 94.043 56.2551C94.4313 55.6489 94.9134 55.1529 95.1143 55.1529C95.7125 55.1529 97.6647 57.275 97.6647 57.9252C97.6647 58.9644 95.3743 59.3752 94.9827 58.4063ZM142.544 54.8081C142.686 54.1445 142.823 53.2703 142.85 52.8656C142.876 52.4608 143.077 51.9178 143.297 51.6589C143.738 51.1408 143.318 49.6368 142.733 49.6368C142.542 49.6368 142.279 49.1723 142.148 48.6046C142.017 48.0368 141.667 47.4438 141.372 47.2868C140.829 46.9982 140.823 45.7115 141.361 44.8963C141.751 44.3052 143.295 44.3522 143.542 44.9627C143.652 45.2361 143.654 45.9816 143.545 46.6193C143.389 47.5294 143.544 48.0021 144.267 48.8171C144.773 49.3882 145.295 50.2653 145.428 50.7663C145.56 51.2672 145.898 51.8575 146.178 52.0782C146.809 52.5758 146.841 53.9176 146.233 54.3762C145.983 54.5643 145.126 54.8303 144.327 54.9672C143.529 55.1042 142.743 55.3959 142.58 55.6155C142.418 55.8351 142.401 55.4718 142.544 54.8081ZM137.802 52.3346C138.05 51.2562 139.538 49.1704 139.849 49.4656C139.927 49.54 139.928 50.2342 139.85 51.0083C139.735 52.1562 139.509 52.5138 138.624 52.9483L137.539 53.4811L137.802 52.3346ZM29.0341 49.7888C29.0341 49.4932 29.1975 49.3472 29.3972 49.4644C29.5969 49.5816 29.7603 49.8235 29.7603 50.0019C29.7603 50.1803 29.5969 50.3263 29.3972 50.3263C29.1975 50.3263 29.0341 50.0844 29.0341 49.7888ZM27.0369 46.5339C26.9135 46.3443 26.9855 46.1892 27.197 46.1892C27.4085 46.1892 27.5816 46.3443 27.5816 46.5339C27.5816 46.7236 27.5095 46.8787 27.4215 46.8787C27.3334 46.8787 27.1603 46.7236 27.0369 46.5339ZM104.657 39.3088C102.576 38.8289 102.714 39.0793 100.29 31.3646C99.9623 30.3217 99.5644 29.321 99.4057 29.1409C98.7086 28.3495 99.122 25.8762 100.207 24.3505C101.559 22.4475 101.565 21.9877 100.25 20.9371C99.0677 19.9925 98.525 18.7836 99.1253 18.4314C99.3457 18.302 99.8436 18.469 100.232 18.8025C100.62 19.1359 101.038 19.3135 101.16 19.1971C101.572 18.8063 100.915 16.54 100.39 16.54C100.109 16.54 99.7238 16.2758 99.5335 15.9529C99.2461 15.4653 99.092 15.4411 98.6236 15.8102C97.7281 16.5158 97.3016 15.947 97.3016 14.0473C97.3016 12.8531 97.0968 12.07 96.6667 11.6187C96.2626 11.1948 96.0228 10.3642 96.0071 9.33392C95.9935 8.44361 95.856 7.52104 95.7015 7.28377C95.5471 7.04649 95.2311 6.131 94.9994 5.24932C94.6825 4.04332 94.3004 3.49276 93.4568 3.02645C92.2761 2.37382 89.5685 2.1655 87.6165 2.5771C86.5858 2.79441 86.4045 2.70932 85.8916 1.76762C85.5764 1.18885 85.3185 0.630029 85.3185 0.525804C85.3185 0.421579 94.939 0.336304 106.697 0.336304H128.076L128.36 1.45677C128.798 3.18642 128.619 4.23471 127.782 4.83404C126.937 5.43889 126.881 7.47569 127.713 7.31766C128.386 7.18995 128.264 7.73104 127.465 8.41709C127.079 8.74872 126.852 9.23819 126.96 9.5048C127.183 10.0565 127.233 10.0456 123.395 10.2766C122.043 10.3579 121.757 11.2999 122.953 11.7317C123.759 12.0228 123.866 12.2218 123.682 13.0929C123.509 13.9153 123.624 14.1896 124.274 14.5077C125.771 15.24 126.715 16.3017 126.715 17.2527C126.715 18.3525 125.828 18.8141 125.174 18.0549C124.138 16.8517 123.431 16.1953 123.174 16.1974C123.024 16.1986 122.614 16.6799 122.262 17.2669C121.867 17.926 121.426 18.2627 121.108 18.1471C120.545 17.9418 119.677 18.707 120.061 19.0712C120.192 19.1959 120.757 19.298 121.316 19.298C121.96 19.298 122.474 19.5502 122.72 19.9875C122.975 20.439 123.481 20.6771 124.186 20.6771C124.997 20.6771 125.262 20.8367 125.262 21.3244C125.262 22.2165 124.611 22.6494 122.639 23.069C121.58 23.2944 120.439 23.8765 119.567 24.6364C118.805 25.3012 117.854 25.8467 117.455 25.8486C116.837 25.8517 115.408 27.3814 113.719 29.8461C113.577 30.0539 112.975 30.4417 112.382 30.708C111.638 31.0417 111.12 31.6608 110.716 32.6997C110.393 33.5288 109.751 34.478 109.289 34.809C108.723 35.2147 108.511 35.6387 108.641 36.1103C108.906 37.0697 107.447 39.4522 106.551 39.5234C106.157 39.5548 105.305 39.4582 104.657 39.3088ZM86.8193 36.0749C86.4534 35.6557 85.9762 35.559 85.0023 35.7069C83.7235 35.901 83.6355 35.8436 82.2254 33.8946C80.8474 31.9898 80.6836 31.8781 79.1742 31.8147C75.7947 31.6728 76.4261 28.8616 79.9083 28.546C81.1028 28.4377 81.1429 28.3857 81.1544 26.9324C81.161 26.1064 80.971 25.1771 80.7323 24.8671C80.3428 24.3613 80.2005 24.4038 79.344 25.2812C78.4621 26.1846 78.3288 26.2205 77.5874 25.7538C75.9544 24.7262 76.7271 23.7707 79.295 23.6422C80.4752 23.5832 80.309 22.9096 79.0037 22.4615C78.3208 22.2271 77.671 21.8098 77.5597 21.5343C77.4455 21.2518 77.1137 21.1221 76.7988 21.2369C76.4362 21.369 76.2403 21.2421 76.2403 20.8752C76.2403 20.262 74.8886 19.6314 74.1477 19.899C73.8955 19.9901 73.454 19.8793 73.1666 19.6529C72.8791 19.4263 72.3017 19.3442 71.8833 19.4703C71.3235 19.6389 70.6717 19.3537 69.4148 18.39C68.4754 17.6697 67.5751 16.9201 67.4141 16.724C67.253 16.528 67.205 15.2816 67.3073 13.9543C67.468 11.8701 67.6284 11.43 68.4837 10.7274C69.4341 9.94673 69.4937 9.93951 69.9627 10.5484C70.2547 10.9276 70.3624 11.5669 70.2304 12.1376C69.933 13.423 70.8874 13.4265 72.0539 12.1443L72.9165 11.1962L73.295 12.0581C74.0645 13.8099 74.6486 14.2117 76.219 14.0695C77.0296 13.9961 77.6928 14.0267 77.6928 14.1374C77.6928 14.2482 78.5217 14.3388 79.5347 14.3388C81.7071 14.3388 82.1512 14.7792 81.8407 16.6261C81.6417 17.8102 81.6948 17.919 82.4723 17.9193C83.7152 17.9196 86.0447 20.3175 86.0447 21.5964C86.0447 22.1526 85.8737 22.77 85.6647 22.9685C85.4002 23.2196 85.7689 23.5048 86.8787 23.9072C87.7579 24.2259 88.6792 24.8515 88.9331 25.3019C89.1864 25.7512 90.0289 26.3557 90.8055 26.6453C91.8002 27.0162 92.1556 27.325 92.0081 27.6899C91.893 27.9748 91.9861 28.5402 92.2151 28.9464C92.8708 30.1097 92.0732 30.7399 90.0916 30.6242C88.1644 30.5117 87.9297 30.854 88.604 32.7938C88.9767 33.8659 88.9808 34.2298 88.6239 34.5639C88.2697 34.8955 88.0751 34.8568 87.7051 34.3812C87.2099 33.7449 86.0447 33.5498 86.0447 34.1031C86.0447 34.282 86.3864 34.6555 86.804 34.9332C87.2216 35.211 87.5076 35.7093 87.4395 36.0408C87.3249 36.5982 87.2785 36.6008 86.8193 36.0749ZM70.1643 34.0451C68.7707 33.114 68.7002 32.5602 69.8078 31.2461L70.6341 30.2657L72.3478 31.0562C73.6529 31.6582 74.0616 32.0359 74.0616 32.6399C74.0616 33.2146 73.8526 33.4331 73.3028 33.4331C72.8854 33.4331 72.2726 33.7473 71.941 34.1313L71.3381 34.8294L70.1643 34.0451ZM129.438 33.6969C129.039 33.4743 128.058 33.2075 127.259 33.1041C125.838 32.92 125.804 32.8835 125.693 31.4039C125.55 29.5146 125.887 29.178 127.412 29.6829C128.298 29.9762 128.674 29.9781 128.861 29.6901C129.001 29.4763 129.841 29.2071 130.729 29.0919C132.131 28.9099 132.477 29.0001 133.36 29.7784C134.552 30.8284 134.445 31.1191 132.218 32.8771C130.463 34.2628 130.457 34.2646 129.438 33.6969ZM191.56 23.4769C191.447 23.304 191.599 23.0737 191.898 22.9649C192.196 22.8562 192.44 22.9084 192.44 23.0808C192.44 23.5482 191.795 23.8384 191.56 23.4769ZM46.1917 21.8968C43.8317 20.8619 43.7501 20.1974 45.9194 19.6787C46.9917 19.4224 47.5535 19.1011 47.5535 18.7442C47.5535 18.2943 47.1613 18.2207 45.2839 18.3182L43.0144 18.4361L43.1368 16.54C43.3054 13.9284 43.8615 13.2358 46.167 12.7664C47.8929 12.415 48.1283 12.4408 48.6313 13.0367C48.9372 13.3991 49.6369 13.7955 50.1861 13.9177C50.7353 14.0398 51.191 14.3308 51.1987 14.5642C51.2064 14.7976 51.7375 15.3013 52.3789 15.6835C53.0202 16.0657 53.5932 16.6957 53.6521 17.0835C53.7109 17.4713 54.2411 18.0589 54.8301 18.3892C56.0699 19.0845 56.4865 20.2401 55.9915 21.6103C55.7136 22.3797 55.4693 22.5422 54.7759 22.419C53.4872 22.19 50.4298 22.2342 49.1875 22.4998C48.4061 22.6668 47.5592 22.4963 46.1917 21.8968ZM58.9919 22.4008C58.6698 21.9061 59.1134 21.3647 59.8304 21.3775C60.5994 21.3913 61.7852 22.2196 61.4676 22.5211C61.0964 22.8736 59.241 22.7835 58.9919 22.4008ZM197.324 18.9798C197.135 18.8048 196.492 18.6108 195.897 18.5488C194.471 18.4004 193.805 16.8948 194.734 15.9199C195.07 15.5674 195.35 14.9809 195.357 14.6166C195.363 14.2523 195.593 13.6726 195.868 13.3283C196.291 12.7985 196.481 12.7692 197.102 13.1375C197.659 13.4675 197.753 13.7198 197.494 14.1808C197.275 14.5681 197.289 15.3257 197.53 16.2677C198.216 18.9398 198.268 19.298 197.967 19.298C197.803 19.298 197.514 19.1548 197.324 18.9798ZM315.103 18.2202C314.644 17.836 314.459 17.6121 314.692 17.7225C314.924 17.8329 315.169 17.7711 315.236 17.5852C315.409 17.1049 316.992 17.5642 316.992 18.0947C316.992 18.8716 315.964 18.9399 315.103 18.2202ZM37.5435 16.267C36.7069 15.731 36.0462 14.4119 36.2091 13.6029C36.3038 13.1325 36.5066 12.7476 36.6597 12.7476C37.0727 12.7476 37.4602 11.3496 37.3935 10.1008C37.3018 8.38707 38.4811 8.07538 42.3221 8.79824C43.2284 8.96882 45.0116 10.5826 45.0116 11.2323C45.0116 11.4848 44.2844 12.2006 43.3957 12.8229C42.5069 13.4451 41.6221 14.3663 41.4293 14.8698C41.2366 15.3734 40.779 15.8632 40.4126 15.9583C38.6842 16.4066 37.8941 16.4917 37.5435 16.267ZM58.3262 15.9654C58.193 15.8389 58.0831 15.4899 58.0818 15.1897C58.0807 14.8894 57.5495 14.3549 56.9016 14.0019L55.7238 13.36L56.5408 12.8394C57.0153 12.537 57.3578 11.9658 57.3578 11.4771C57.3578 10.7351 57.4977 10.6482 58.538 10.7434C59.5511 10.8361 59.7342 10.9978 59.8315 11.8857C59.8939 12.4546 60.2104 13.1134 60.5348 13.3498C61.0787 13.7462 61.0774 13.8738 60.5181 14.9874C59.9515 16.1155 58.9534 16.5608 58.3262 15.9654ZM62.2169 12.8338C62.0857 12.3124 61.8563 11.7306 61.7071 11.541C61.3364 11.0698 61.9352 9.67535 62.6144 9.42788C62.9188 9.31698 63.4538 9.34373 63.8033 9.48731C64.1528 9.63089 64.7656 9.80444 65.165 9.87297C65.5645 9.9415 66.0828 10.0638 66.317 10.1448C66.9909 10.378 66.4522 11.6249 65.3994 12.2687C64.8711 12.5918 64.3081 13.0644 64.1484 13.319C63.628 14.1485 62.4748 13.8588 62.2169 12.8338ZM76.0061 11.9842C75.2591 11.4803 74.8905 10.9531 74.9219 10.4331C74.9804 9.46357 75.1612 9.45438 76.3729 10.3593C76.8992 10.7523 77.3297 10.966 77.3297 10.8342C77.3297 10.7025 77.5714 10.7851 77.8668 11.0178C78.2655 11.332 78.309 11.6092 78.0355 12.0943C77.5678 12.9242 77.385 12.9142 76.0061 11.9842ZM278.309 11.3535C277.989 10.8604 278.81 9.98954 279.596 9.98954C280.274 9.98954 280.824 10.8683 280.478 11.3997C280.198 11.8301 278.598 11.796 278.309 11.3535ZM197.161 10.535C197.161 10.2574 197.302 9.94729 197.475 9.84591C197.648 9.74454 197.878 9.03134 197.987 8.26102C198.226 6.56612 199.13 5.16326 199.984 5.16199C200.336 5.16147 200.929 4.59564 201.337 3.86915C202.043 2.61345 202.123 2.57592 204.188 2.53031C205.724 2.49637 206.599 2.28173 207.35 1.75461C208.575 0.894936 208.994 0.846004 209.27 1.53028C209.491 2.07709 208.143 3.25673 206.852 3.64569C206.423 3.77493 205.644 4.31543 205.121 4.84681C204.599 5.37819 203.697 5.9223 203.117 6.05595C202.189 6.26994 198.977 9.08463 198.977 9.68381C198.977 9.80835 198.568 10.1644 198.069 10.475C197.3 10.9529 197.161 10.9621 197.161 10.535ZM68.4331 7.7634C67.834 7.51136 66.9034 7.14064 66.3651 6.93957C65.498 6.61566 65.3579 6.3339 65.1355 4.46784C64.8925 2.42902 64.8405 2.34498 63.5095 1.83934C61.7746 1.18028 61.3287 0.331756 62.7253 0.347268C63.2683 0.353298 64.0297 0.586011 64.4174 0.864406C64.8051 1.1428 65.4178 1.37058 65.7791 1.37058C66.1404 1.37058 66.4412 1.56451 66.4475 1.80153C66.4755 2.84768 67.4798 3.41845 69.9132 3.77128C71.2961 3.97179 73.2037 4.30484 74.1524 4.51139C75.7324 4.85541 75.8772 4.9726 75.8772 5.90717C75.8772 6.58913 75.7385 6.84604 75.459 6.68201C75.229 6.54704 74.8338 6.70529 74.5809 7.03368C74.2141 7.50999 73.9714 7.55468 73.3809 7.25465C72.7952 6.95705 72.3912 7.02304 71.4448 7.57086C70.0647 8.36974 69.8996 8.38029 68.4331 7.7634ZM46.655 6.78829L46.8927 5.58537L45.2259 5.76374C43.6811 5.92906 43.5591 5.885 43.5591 5.16157C43.5591 4.73227 43.7484 3.78124 43.9797 3.04818C44.4567 1.53666 45.2477 1.31921 46.2903 2.413C46.7825 2.92938 47.0273 3.00013 47.2322 2.68528C47.4407 2.36502 47.6932 2.41804 48.2539 2.89984C48.9885 3.53103 49.0063 3.5226 49.5519 2.2828C49.8562 1.59146 50.1685 1.02582 50.2459 1.02582C50.3234 1.02582 50.7242 1.56882 51.1366 2.23248C51.6087 2.99214 52.1643 3.43913 52.6364 3.43913C53.6731 3.43913 53.8869 4.2134 53.1989 5.47656C52.5678 6.63512 52.0075 6.83726 51.6792 6.02482C51.4703 5.50799 50.4202 5.27744 50.5015 5.76625C50.7098 7.01909 50.4313 7.3175 49.2267 7.13191C48.4285 7.00894 47.7172 7.12679 47.2061 7.46666C46.4328 7.98091 46.422 7.9676 46.655 6.78829ZM275.651 7.27428L274.436 6.66202L275.651 5.45264C276.651 4.45808 277.134 4.24074 278.373 4.22907C279.625 4.21726 279.946 4.35666 280.284 5.0595C280.821 6.17875 280.523 6.54196 279.068 6.54196C278.286 6.54196 277.688 6.77774 277.365 7.21425C276.882 7.86597 276.83 7.86781 275.651 7.27428ZM62.1535 7.03572C61.7196 6.74716 61.2289 6.01404 61.0631 5.40657C60.6678 3.9584 59.5366 3.68814 59.5366 5.04188V6.00567L58.7565 5.26506C58.0449 4.58941 57.9045 4.56923 57.1557 5.03504C56.3749 5.52074 56.3234 5.49568 56.0978 4.52072C55.9674 3.95703 55.544 3.14905 55.1568 2.72521C54.2173 1.69672 54.2618 1.23114 55.2699 1.54256C56.3029 1.86168 57.3191 1.86336 58.3361 1.54761C59.0091 1.33867 59.2176 1.4931 59.6793 2.54207C59.9799 3.22507 60.4667 3.78389 60.7611 3.78389C61.7747 3.78389 63.5537 5.5225 63.4309 6.393C63.2707 7.52913 63.0571 7.6366 62.1535 7.03572ZM284.129 6.88672C284.006 6.6971 284.232 6.54196 284.631 6.54196C285.031 6.54196 285.458 6.6971 285.582 6.88672C285.705 7.07633 285.479 7.23147 285.08 7.23147C284.681 7.23147 284.253 7.07633 284.129 6.88672ZM74.4667 1.86839C73.532 1.12161 73.2437 1.04813 72.5773 1.38672C72.0041 1.67799 71.5574 1.68524 70.9291 1.41344C69.1387 0.638943 70.0157 0.309896 73.6035 0.410007C76.5299 0.491666 77.1592 0.605503 77.2529 1.07016C77.3667 1.63507 76.455 2.74961 75.8791 2.74961C75.709 2.74961 75.0734 2.35306 74.4667 1.86839ZM39.9996 1.99035C39.7604 1.76325 39.5647 1.29818 39.5647 0.956869C39.5647 0.44794 39.8696 0.336304 41.2593 0.336304C42.1913 0.336304 42.885 0.375089 42.8008 0.422493C42.7166 0.469898 42.1497 0.934964 41.5411 1.45597C40.6816 2.19174 40.3374 2.31106 39.9996 1.99035Z" fill="#7798E5"/>
</svg>
