<?xml version="1.0" standalone="no"?>
<!DOCTYPE svg PUBLIC "-//W3C//DTD SVG 20010904//EN"
 "http://www.w3.org/TR/2001/REC-SVG-20010904/DTD/svg10.dtd">
<svg version="1.0" xmlns="http://www.w3.org/2000/svg"
 width="512.000000pt" height="512.000000pt" viewBox="0 0 512.000000 512.000000"
 preserveAspectRatio="xMidYMid meet">

<g transform="translate(0.000000,512.000000) scale(0.100000,-0.100000)"
fill="#000000" stroke="none">
<path d="M325 5106 c-148 -37 -271 -159 -311 -310 -21 -80 -20 -1318 1 -1401
43 -163 171 -284 335 -315 29 -5 187 -10 351 -10 l298 0 294 -210 c304 -217
325 -228 377 -200 39 21 41 61 10 218 -16 81 -32 157 -35 169 l-5 21 293 4
c277 4 295 5 350 27 109 43 205 139 249 248 l23 58 3 655 c2 463 0 673 -8 715
-31 161 -167 300 -328 334 -79 16 -1829 14 -1897 -3z m1915 -180 c49 -26 98
-74 123 -121 22 -40 22 -45 25 -689 3 -742 6 -713 -78 -797 -76 -76 -96 -79
-477 -79 -189 0 -332 -4 -342 -10 -40 -21 -44 -60 -21 -174 12 -59 20 -111 18
-115 -2 -5 -100 60 -218 145 l-215 154 -326 0 c-366 0 -395 4 -467 66 -24 20
-53 55 -65 78 l-22 41 0 670 c0 634 1 672 19 705 36 68 97 119 166 141 14 4
434 7 935 6 866 -2 912 -3 945 -21z"/>
<path d="M342 4075 l3 -614 23 -23 23 -23 914 -3 915 -2 0 85 0 85 -852 2
-853 3 -3 112 -3 113 81 107 c45 60 85 109 90 111 5 2 50 -52 101 -120 50 -68
99 -129 107 -135 26 -21 86 -16 109 10 11 12 80 111 152 220 72 108 135 197
139 197 4 0 88 -96 186 -214 184 -223 211 -245 261 -226 31 12 41 27 250 405
98 176 188 338 201 360 l23 40 -74 42 -75 42 -24 -42 c-13 -23 -96 -172 -184
-330 l-160 -288 -177 213 c-97 117 -190 219 -205 227 -56 27 -75 9 -231 -225
-78 -118 -143 -214 -144 -214 -2 0 -47 59 -100 130 -99 132 -114 145 -171 138
-27 -3 -60 -36 -131 -133 l-22 -30 -1 298 0 297 -85 0 -85 0 2 -615z"/>
<path d="M2983 4808 l-313 -313 60 -60 60 -60 285 285 285 285 715 -79 c608
-68 715 -82 715 -95 0 -9 36 -330 78 -713 l78 -697 -167 -167 -167 -167 -6 34
c-4 19 -40 263 -82 544 -52 353 -72 511 -64 513 34 12 97 74 119 117 34 64 36
169 6 230 -94 190 -359 193 -457 6 -67 -128 -9 -297 120 -350 18 -7 32 -18 32
-23 0 -14 119 -819 126 -848 3 -17 -134 114 -428 405 -821 816 -792 789 -830
781 -26 -5 -81 -54 -255 -229 l-223 -222 60 -60 60 -60 183 183 182 182 538
-538 537 -537 -97 -97 -98 -98 60 -60 60 -60 135 135 136 135 17 -117 17 -117
-85 -86 -85 -86 60 -59 60 -59 39 38 c48 47 40 65 76 -183 28 -192 46 -246
103 -304 62 -65 104 -82 202 -82 76 0 91 3 138 30 59 32 92 67 123 128 41 79
38 111 -51 530 l-83 387 81 84 c45 46 82 92 82 102 0 11 -39 368 -86 794 -60
539 -90 782 -100 798 -8 13 -25 27 -37 32 -19 9 -1529 180 -1582 180 -12 0
-135 -115 -332 -312z m1429 -396 c10 -9 20 -31 24 -48 9 -44 -35 -94 -82 -94
-88 0 -116 113 -39 158 25 15 74 7 97 -16z m472 -1754 c45 -214 66 -332 61
-350 -9 -34 -50 -76 -82 -84 -52 -13 -108 13 -137 64 -4 7 -25 128 -46 270
l-39 257 82 83 c45 45 84 82 87 82 3 0 36 -145 74 -322z"/>
<path d="M2835 3134 c-195 -34 -422 -132 -576 -248 -267 -201 -452 -490 -524
-816 -22 -101 -31 -355 -16 -461 82 -579 507 -1032 1084 -1156 116 -25 418
-25 534 0 169 36 327 100 463 187 l81 53 332 -330 c307 -306 336 -332 386
-348 206 -67 397 120 336 331 -16 58 -24 66 -356 399 l-339 341 34 64 c50 95
94 210 123 324 35 140 43 387 18 538 -49 292 -182 546 -399 756 -203 197 -443
319 -720 367 -111 19 -352 18 -461 -1z m463 -170 c227 -46 428 -149 599 -307
96 -89 217 -263 273 -395 134 -316 125 -682 -24 -988 -157 -320 -439 -551
-783 -640 -135 -36 -339 -44 -483 -19 -254 42 -465 151 -650 335 -183 181
-293 395 -335 650 -25 144 -17 348 19 483 125 481 531 836 1024 896 95 12 263
5 360 -15z m1159 -2336 c205 -206 314 -322 318 -341 16 -63 -45 -126 -109
-113 -24 5 -104 79 -343 318 l-312 312 62 67 c34 37 64 68 67 68 3 1 146 -140
317 -311z"/>
<path d="M2965 2810 c-382 -42 -717 -302 -851 -659 -154 -408 -24 -881 315
-1153 297 -238 694 -294 1046 -147 158 66 335 210 435 355 343 496 195 1163
-328 1474 -170 100 -416 152 -617 130z m217 -175 c240 -20 502 -194 626 -414
82 -147 113 -266 113 -432 0 -288 -138 -546 -375 -703 -139 -93 -258 -133
-423 -143 -421 -26 -799 262 -885 674 -23 114 -20 286 8 388 81 297 316 534
605 610 67 18 196 33 239 29 14 -2 55 -6 92 -9z"/>
<path d="M2988 2388 l-3 -82 -44 -8 c-23 -4 -63 -19 -87 -33 -85 -50 -124
-132 -124 -260 0 -129 40 -211 129 -263 43 -25 56 -27 188 -32 132 -5 143 -7
167 -29 23 -22 26 -32 26 -97 0 -40 -3 -80 -6 -89 -13 -33 -59 -45 -169 -45
-104 0 -107 1 -136 29 -16 16 -29 37 -29 45 0 13 -14 16 -86 16 l-87 0 7 -41
c17 -108 107 -198 215 -215 l41 -7 0 -83 0 -84 85 0 85 0 0 83 0 82 53 13 c69
16 125 56 162 117 29 47 30 52 30 174 0 139 -6 158 -66 219 -62 63 -99 75
-244 79 -140 4 -167 12 -184 50 -27 59 -6 181 34 197 9 3 68 6 131 6 109 0
116 -1 139 -25 14 -13 25 -31 25 -40 0 -12 15 -15 85 -15 l85 0 0 28 c0 44
-44 125 -89 163 -40 35 -97 59 -140 59 -20 0 -21 5 -21 85 l0 85 -85 0 -84 0
-3 -82z"/>
<path d="M522 2347 c-489 -489 -522 -525 -522 -557 0 -33 51 -86 878 -912 823
-824 879 -878 912 -878 31 0 53 19 262 227 l228 228 -60 60 -60 60 -185 -185
-185 -185 -793 793 -792 792 483 483 482 482 -58 58 c-32 31 -60 57 -62 57 -3
0 -240 -235 -528 -523z"/>
<path d="M900 2075 l-275 -275 60 -60 60 -60 277 277 278 278 -57 57 c-32 32
-60 58 -63 58 -3 0 -129 -124 -280 -275z"/>
<path d="M1167 1812 l-277 -277 60 -60 60 -60 278 278 277 277 -60 60 -60 60
-278 -278z"/>
<path d="M1307 1432 l-157 -157 63 -63 62 -62 158 158 c86 86 157 162 157 167
0 13 -102 115 -115 115 -6 0 -81 -71 -168 -158z"/>
<path d="M1530 1125 l-115 -115 60 -60 60 -60 115 115 115 115 -60 60 -60 60
-115 -115z"/>
<path d="M1762 827 l-82 -83 60 -59 60 -59 85 84 85 84 -57 58 c-32 32 -60 58
-63 58 -3 0 -42 -37 -88 -83z"/>
</g>
</svg>
